<?xml version="1.0" encoding="UTF-8" standalone="no"?><svg xmlns="http://www.w3.org/2000/svg" xmlns:xlink="http://www.w3.org/1999/xlink" contentScriptType="application/ecmascript" contentStyleType="text/css" height="931px" preserveAspectRatio="none" style="width:1308px;height:931px;" version="1.1" viewBox="0 0 1308 931" width="1308px" zoomAndPan="magnify"><defs><filter height="300%" id="fabqdou" width="300%" x="-1" y="-1"><feGaussianBlur result="blurOut" stdDeviation="2.0"/><feColorMatrix in="blurOut" result="blurOut2" type="matrix" values="0 0 0 0 0 0 0 0 0 0 0 0 0 0 0 0 0 0 .4 0"/><feOffset dx="4.0" dy="4.0" in="blurOut2" result="blurOut3"/><feBlend in="SourceGraphic" in2="blurOut3" mode="normal"/></filter></defs><g><!--cluster MongoDB driver--><polygon fill="#AAAAAA" filter="url(#fabqdou)" points="22,288.5,154,288.5,161,310.7969,214,310.7969,214,811,22,811,22,288.5" style="stroke: #000000; stroke-width: 2.0;"/><line style="stroke: #000000; stroke-width: 2.0;" x1="22" x2="161" y1="310.7969" y2="310.7969"/><text fill="#000000" font-family="sans-serif" font-size="14" font-weight="bold" lengthAdjust="spacingAndGlyphs" textLength="126" x="26" y="303.4951">MongoDB driver</text><!--cluster Metadata library --><polygon fill="#FFFFFF" filter="url(#fabqdou)" points="238,24,376,24,383,46.2969,1301,46.2969,1301,830,238,830,238,24" style="stroke: #000000; stroke-width: 2.0;"/><line style="stroke: #000000; stroke-width: 2.0;" x1="238" x2="383" y1="46.2969" y2="46.2969"/><text fill="#000000" font-family="sans-serif" font-size="14" font-weight="bold" lengthAdjust="spacingAndGlyphs" textLength="127" x="242" y="38.9951">Metadata library</text><!--class MC--><rect fill="#FEFECE" filter="url(#fabqdou)" height="48" style="stroke: #A80036; stroke-width: 1.5;" width="134" x="57" y="323.5"/><ellipse cx="72" cy="339.5" fill="#ADD1B2" rx="11" ry="11" style="stroke: #A80036; stroke-width: 1.0;"/><path d="M74.9688,345.1406 Q74.3906,345.4375 73.75,345.5859 Q73.1094,345.7344 72.4063,345.7344 Q69.9063,345.7344 68.5859,344.0859 Q67.2656,342.4375 67.2656,339.3125 Q67.2656,336.1875 68.5859,334.5313 Q69.9063,332.875 72.4063,332.875 Q73.1094,332.875 73.7578,333.0313 Q74.4063,333.1875 74.9688,333.4844 L74.9688,336.2031 Q74.3438,335.625 73.75,335.3516 Q73.1563,335.0781 72.5313,335.0781 Q71.1875,335.0781 70.5,336.1484 Q69.8125,337.2188 69.8125,339.3125 Q69.8125,341.4063 70.5,342.4766 Q71.1875,343.5469 72.5313,343.5469 Q73.1563,343.5469 73.75,343.2734 Q74.3438,343 74.9688,342.4219 L74.9688,345.1406 Z "/><text fill="#000000" font-family="sans-serif" font-size="12" lengthAdjust="spacingAndGlyphs" textLength="102" x="86" y="343.6543">MongoDB::Client</text><line style="stroke: #A80036; stroke-width: 1.5;" x1="58" x2="190" y1="355.5" y2="355.5"/><line style="stroke: #A80036; stroke-width: 1.5;" x1="58" x2="190" y1="363.5" y2="363.5"/><!--class MDB--><rect fill="#FEFECE" filter="url(#fabqdou)" height="48" style="stroke: #A80036; stroke-width: 1.5;" width="160" x="38" y="572"/><ellipse cx="53" cy="588" fill="#ADD1B2" rx="11" ry="11" style="stroke: #A80036; stroke-width: 1.0;"/><path d="M55.9688,593.6406 Q55.3906,593.9375 54.75,594.0859 Q54.1094,594.2344 53.4063,594.2344 Q50.9063,594.2344 49.5859,592.5859 Q48.2656,590.9375 48.2656,587.8125 Q48.2656,584.6875 49.5859,583.0313 Q50.9063,581.375 53.4063,581.375 Q54.1094,581.375 54.7578,581.5313 Q55.4063,581.6875 55.9688,581.9844 L55.9688,584.7031 Q55.3438,584.125 54.75,583.8516 Q54.1563,583.5781 53.5313,583.5781 Q52.1875,583.5781 51.5,584.6484 Q50.8125,585.7188 50.8125,587.8125 Q50.8125,589.9063 51.5,590.9766 Q52.1875,592.0469 53.5313,592.0469 Q54.1563,592.0469 54.75,591.7734 Q55.3438,591.5 55.9688,590.9219 L55.9688,593.6406 Z "/><text fill="#000000" font-family="sans-serif" font-size="12" lengthAdjust="spacingAndGlyphs" textLength="128" x="67" y="592.1543">MongoDB::Database</text><line style="stroke: #A80036; stroke-width: 1.5;" x1="39" x2="197" y1="604" y2="604"/><line style="stroke: #A80036; stroke-width: 1.5;" x1="39" x2="197" y1="612" y2="612"/><!--class MCL--><rect fill="#FEFECE" filter="url(#fabqdou)" height="48" style="stroke: #A80036; stroke-width: 1.5;" width="160" x="38" y="747"/><ellipse cx="53" cy="763" fill="#ADD1B2" rx="11" ry="11" style="stroke: #A80036; stroke-width: 1.0;"/><path d="M55.9688,768.6406 Q55.3906,768.9375 54.75,769.0859 Q54.1094,769.2344 53.4063,769.2344 Q50.9063,769.2344 49.5859,767.5859 Q48.2656,765.9375 48.2656,762.8125 Q48.2656,759.6875 49.5859,758.0313 Q50.9063,756.375 53.4063,756.375 Q54.1094,756.375 54.7578,756.5313 Q55.4063,756.6875 55.9688,756.9844 L55.9688,759.7031 Q55.3438,759.125 54.75,758.8516 Q54.1563,758.5781 53.5313,758.5781 Q52.1875,758.5781 51.5,759.6484 Q50.8125,760.7188 50.8125,762.8125 Q50.8125,764.9063 51.5,765.9766 Q52.1875,767.0469 53.5313,767.0469 Q54.1563,767.0469 54.75,766.7734 Q55.3438,766.5 55.9688,765.9219 L55.9688,768.6406 Z "/><text fill="#000000" font-family="sans-serif" font-size="12" lengthAdjust="spacingAndGlyphs" textLength="128" x="67" y="767.1543">MongoDB::Collection</text><line style="stroke: #A80036; stroke-width: 1.5;" x1="39" x2="197" y1="779" y2="779"/><line style="stroke: #A80036; stroke-width: 1.5;" x1="39" x2="197" y1="787" y2="787"/><!--class L--><rect fill="#FEFECE" filter="url(#fabqdou)" height="92.3516" style="stroke: #A80036; stroke-width: 1.5;" width="219" x="299.5" y="301.5"/><ellipse cx="372.75" cy="320.4688" fill="#FF8800" rx="11" ry="11" style="stroke: #A80036; stroke-width: 1.0;"/><path d="M372.5469,316.1406 L372.5469,319.7656 L373.5469,319.7656 Q374.75,319.7656 375.2344,319.3594 Q375.7188,318.9531 375.7188,317.9531 Q375.7188,316.9531 375.2344,316.5469 Q374.75,316.1406 373.5469,316.1406 L372.5469,316.1406 Z M370.0938,314.0781 L373.4531,314.0781 Q376.0156,314.0781 377.1406,314.9922 Q378.2656,315.9063 378.2656,317.9531 Q378.2656,320 377.1406,320.9141 Q376.0156,321.8281 373.4531,321.8281 L372.5469,321.8281 L372.5469,326.4688 L370.0938,326.4688 L370.0938,314.0781 Z "/><text fill="#000000" font-family="sans-serif" font-size="12" font-style="italic" lengthAdjust="spacingAndGlyphs" textLength="68" x="391.25" y="317.6387">«package»</text><text fill="#000000" font-family="sans-serif" font-size="12" lengthAdjust="spacingAndGlyphs" textLength="41" x="404.75" y="331.6074">Library</text><line style="stroke: #A80036; stroke-width: 1.5;" x1="300.5" x2="517.5" y1="339.4375" y2="339.4375"/><text fill="#000000" font-family="sans-serif" font-size="11" lengthAdjust="spacingAndGlyphs" textLength="191" x="305.5" y="353.6479">our Library::Configuration $lib-cfg</text><text fill="#000000" font-family="sans-serif" font-size="11" lengthAdjust="spacingAndGlyphs" textLength="157" x="305.5" y="366.4526">our MongoDB::Client $client</text><line style="stroke: #A80036; stroke-width: 1.5;" x1="300.5" x2="517.5" y1="373.0469" y2="373.0469"/><text fill="#000000" font-family="sans-serif" font-size="11" lengthAdjust="spacingAndGlyphs" textLength="207" x="305.5" y="387.2573">initialize-library( Str :$library-config )</text><!--class LC--><rect fill="#FEFECE" filter="url(#fabqdou)" height="112.0234" style="stroke: #A80036; stroke-width: 1.5;" width="239" x="289.5" y="59"/><ellipse cx="338.25" cy="75" fill="#ADD1B2" rx="11" ry="11" style="stroke: #A80036; stroke-width: 1.0;"/><path d="M341.2188,80.6406 Q340.6406,80.9375 340,81.0859 Q339.3594,81.2344 338.6563,81.2344 Q336.1563,81.2344 334.8359,79.5859 Q333.5156,77.9375 333.5156,74.8125 Q333.5156,71.6875 334.8359,70.0313 Q336.1563,68.375 338.6563,68.375 Q339.3594,68.375 340.0078,68.5313 Q340.6563,68.6875 341.2188,68.9844 L341.2188,71.7031 Q340.5938,71.125 340,70.8516 Q339.4063,70.5781 338.7813,70.5781 Q337.4375,70.5781 336.75,71.6484 Q336.0625,72.7188 336.0625,74.8125 Q336.0625,76.9063 336.75,77.9766 Q337.4375,79.0469 338.7813,79.0469 Q339.4063,79.0469 340,78.7734 Q340.5938,78.5 341.2188,77.9219 L341.2188,80.6406 Z "/><text fill="#000000" font-family="sans-serif" font-size="12" lengthAdjust="spacingAndGlyphs" textLength="133" x="358.75" y="79.1543">Library::Configuration</text><line style="stroke: #A80036; stroke-width: 1.5;" x1="290.5" x2="527.5" y1="91" y2="91"/><text fill="#000000" font-family="sans-serif" font-size="11" lengthAdjust="spacingAndGlyphs" textLength="143" x="295.5" y="105.2104">has Str $!config-filename</text><text fill="#000000" font-family="sans-serif" font-size="11" lengthAdjust="spacingAndGlyphs" textLength="103" x="295.5" y="118.0151">has Hash $.config</text><line style="stroke: #A80036; stroke-width: 1.5;" x1="290.5" x2="527.5" y1="124.6094" y2="124.6094"/><text fill="#000000" font-family="sans-serif" font-size="11" lengthAdjust="spacingAndGlyphs" textLength="227" x="295.5" y="138.8198">submethod BUILD ( Str :$library-config )</text><text fill="#000000" font-family="sans-serif" font-size="11" lengthAdjust="spacingAndGlyphs" textLength="90" x="295.5" y="151.6245">method save ( )</text><text fill="#000000" font-family="sans-serif" font-size="11" lengthAdjust="spacingAndGlyphs" textLength="136" x="295.5" y="164.4292">method !check-config ( )</text><!--class LD--><rect fill="#FEFECE" filter="url(#fabqdou)" height="143.5703" style="stroke: #A80036; stroke-width: 1.5;" width="350" x="254" y="524"/><ellipse cx="369.75" cy="542.9688" fill="#FFFF00" rx="11" ry="11" style="stroke: #A80036; stroke-width: 1.0;"/><path d="M370.9531,543.1094 Q371.3125,543.1875 371.5859,543.4609 Q371.8594,543.7344 372.25,544.5156 L374.4844,548.9688 L371.7969,548.9688 L370.2969,545.8438 Q370.2344,545.7031 370.125,545.4688 Q369.4688,544.0781 368.5781,544.0781 L367.7969,544.0781 L367.7969,548.9688 L365.3594,548.9688 L365.3594,536.5781 L368.8906,536.5781 Q371.2813,536.5781 372.3203,537.4219 Q373.3594,538.2656 373.3594,540.1719 Q373.3594,541.4531 372.7422,542.2109 Q372.125,542.9688 370.9531,543.1094 Z M367.7969,538.6406 L367.7969,542.0156 L368.9531,542.0156 Q369.9688,542.0156 370.3984,541.6172 Q370.8281,541.2188 370.8281,540.3125 Q370.8281,539.4219 370.3984,539.0313 Q369.9688,538.6406 368.9531,538.6406 L367.7969,538.6406 Z "/><text fill="#000000" font-family="sans-serif" font-size="12" font-style="italic" lengthAdjust="spacingAndGlyphs" textLength="38" x="426.25" y="540.1387">«role»</text><text fill="#000000" font-family="sans-serif" font-size="12" lengthAdjust="spacingAndGlyphs" textLength="110" x="390.25" y="554.1074">Library::Database</text><line style="stroke: #A80036; stroke-width: 1.5;" x1="255" x2="603" y1="561.9375" y2="561.9375"/><text fill="#000000" font-family="sans-serif" font-size="11" lengthAdjust="spacingAndGlyphs" textLength="207" x="260" y="576.1479">has MongoDB::Database $!database</text><text fill="#000000" font-family="sans-serif" font-size="11" lengthAdjust="spacingAndGlyphs" textLength="300" x="260" y="588.9526">has MongoDB::Collection $!collection handles &lt;find&gt;</text><line style="stroke: #A80036; stroke-width: 1.5;" x1="255" x2="603" y1="595.5469" y2="595.5469"/><text fill="#000000" font-family="sans-serif" font-size="11" lengthAdjust="spacingAndGlyphs" textLength="338" x="260" y="609.7573">method init ( Str:D :$database-key!, Str:D :$collection-key! )</text><text fill="#000000" font-family="sans-serif" font-size="11" lengthAdjust="spacingAndGlyphs" textLength="327" x="260" y="622.562">method insert ( Array $documents --&gt; BSON::Document )</text><text fill="#000000" font-family="sans-serif" font-size="11" lengthAdjust="spacingAndGlyphs" textLength="308" x="260" y="635.3667">method delete ( Array $deletes --&gt; BSON::Document )</text><text fill="#000000" font-family="sans-serif" font-size="11" lengthAdjust="spacingAndGlyphs" textLength="284" x="260" y="648.1714">method count ( List $query --&gt; BSON::Document )</text><text fill="#000000" font-family="sans-serif" font-size="11" lengthAdjust="spacingAndGlyphs" textLength="269" x="260" y="660.9761">method drop-database ( --&gt; BSON::Document )</text><!--class LMD--><rect fill="#FEFECE" filter="url(#fabqdou)" height="86.4141" style="stroke: #A80036; stroke-width: 1.5;" width="483" x="550.5" y="728"/><ellipse cx="698.75" cy="744" fill="#ADD1B2" rx="11" ry="11" style="stroke: #A80036; stroke-width: 1.0;"/><path d="M701.7188,749.6406 Q701.1406,749.9375 700.5,750.0859 Q699.8594,750.2344 699.1563,750.2344 Q696.6563,750.2344 695.3359,748.5859 Q694.0156,746.9375 694.0156,743.8125 Q694.0156,740.6875 695.3359,739.0313 Q696.6563,737.375 699.1563,737.375 Q699.8594,737.375 700.5078,737.5313 Q701.1563,737.6875 701.7188,737.9844 L701.7188,740.7031 Q701.0938,740.125 700.5,739.8516 Q699.9063,739.5781 699.2813,739.5781 Q697.9375,739.5781 697.25,740.6484 Q696.5625,741.7188 696.5625,743.8125 Q696.5625,745.9063 697.25,746.9766 Q697.9375,748.0469 699.2813,748.0469 Q699.9063,748.0469 700.5,747.7734 Q701.0938,747.5 701.7188,746.9219 L701.7188,749.6406 Z "/><text fill="#000000" font-family="sans-serif" font-size="12" lengthAdjust="spacingAndGlyphs" textLength="178" x="719.25" y="748.1543">Library::Metadata::Database</text><line style="stroke: #A80036; stroke-width: 1.5;" x1="551.5" x2="1032.5" y1="760" y2="760"/><text fill="#000000" font-family="sans-serif" font-size="11" lengthAdjust="spacingAndGlyphs" textLength="250" x="556.5" y="774.2104">has Library::MetaData::Object $!meta-object</text><line style="stroke: #A80036; stroke-width: 1.5;" x1="551.5" x2="1032.5" y1="780.8047" y2="780.8047"/><text fill="#000000" font-family="sans-serif" font-size="11" lengthAdjust="spacingAndGlyphs" textLength="117" x="556.5" y="795.0151">submethod BUILD ( )</text><text fill="#000000" font-family="sans-serif" font-size="11" lengthAdjust="spacingAndGlyphs" textLength="471" x="556.5" y="807.8198">method update-meta( Str $object, ObjectType $type --&gt; Library::Metadata::Object )</text><!--class Obj--><rect fill="#FEFECE" filter="url(#fabqdou)" height="233.2031" style="stroke: #A80036; stroke-width: 1.5;" width="486" x="569" y="231"/><ellipse cx="729.25" cy="249.9688" fill="#FFFF00" rx="11" ry="11" style="stroke: #A80036; stroke-width: 1.0;"/><path d="M730.4531,250.1094 Q730.8125,250.1875 731.0859,250.4609 Q731.3594,250.7344 731.75,251.5156 L733.9844,255.9688 L731.2969,255.9688 L729.7969,252.8438 Q729.7344,252.7031 729.625,252.4688 Q728.9688,251.0781 728.0781,251.0781 L727.2969,251.0781 L727.2969,255.9688 L724.8594,255.9688 L724.8594,243.5781 L728.3906,243.5781 Q730.7813,243.5781 731.8203,244.4219 Q732.8594,245.2656 732.8594,247.1719 Q732.8594,248.4531 732.2422,249.2109 Q731.625,249.9688 730.4531,250.1094 Z M727.2969,245.6406 L727.2969,249.0156 L728.4531,249.0156 Q729.4688,249.0156 729.8984,248.6172 Q730.3281,248.2188 730.3281,247.3125 Q730.3281,246.4219 729.8984,246.0313 Q729.4688,245.6406 728.4531,245.6406 L727.2969,245.6406 Z "/><text fill="#000000" font-family="sans-serif" font-size="12" font-style="italic" lengthAdjust="spacingAndGlyphs" textLength="38" x="809.25" y="247.1387">«role»</text><text fill="#000000" font-family="sans-serif" font-size="12" lengthAdjust="spacingAndGlyphs" textLength="157" x="749.75" y="261.1074">Library::Metadata::Object</text><line style="stroke: #A80036; stroke-width: 1.5;" x1="570" x2="1054" y1="268.9375" y2="268.9375"/><text fill="#000000" font-family="sans-serif" font-size="11" lengthAdjust="spacingAndGlyphs" textLength="195" x="575" y="283.1479">has BSON::Document $!meta-data</text><text fill="#000000" font-family="sans-serif" font-size="11" lengthAdjust="spacingAndGlyphs" textLength="341" x="575" y="295.9526">has $!dbo where  .^name ~~ 'Library::Metadata::Database'</text><line style="stroke: #A80036; stroke-width: 1.5;" x1="570" x2="1054" y1="302.5469" y2="302.5469"/><text fill="#000000" font-family="sans-serif" font-size="11" lengthAdjust="spacingAndGlyphs" textLength="403" x="575" y="316.7573">method init-meta ( Str :$object, ObjectType :$type ) { ... }   # Abstract</text><text fill="#000000" font-family="sans-serif" font-size="11" lengthAdjust="spacingAndGlyphs" textLength="237" x="575" y="329.562">method update-meta ( ) { ... } # Abstract</text><text fill="#000000" font-family="sans-serif" font-size="11" lengthAdjust="spacingAndGlyphs" textLength="337" x="575" y="342.3667">submethod BUILD ( :$dbo, Str :$object, ObjectType :$type )</text><text fill="#000000" font-family="sans-serif" font-size="11" lengthAdjust="spacingAndGlyphs" textLength="215" x="575" y="355.1714">method meta ( --&gt; BSON::Document )</text><text fill="#000000" font-family="sans-serif" font-size="11" lengthAdjust="spacingAndGlyphs" textLength="292" x="575" y="367.9761">method get-user-metadata ( --&gt; BSON::Document )</text><text fill="#000000" font-family="sans-serif" font-size="11" lengthAdjust="spacingAndGlyphs" textLength="396" x="575" y="380.7808">multi method set-user-metadata ( List:D $data --&gt; BSON::Document )</text><text fill="#000000" font-family="sans-serif" font-size="11" lengthAdjust="spacingAndGlyphs" textLength="474" x="575" y="393.5854">multi method set-user-metadata ( BSON::Document:D $data --&gt; BSON::Document )</text><text fill="#000000" font-family="sans-serif" font-size="11" lengthAdjust="spacingAndGlyphs" textLength="287" x="575" y="406.3901">method !update-usermeta ( --&gt; BSON::Document )</text><text fill="#000000" font-family="sans-serif" font-size="11" lengthAdjust="spacingAndGlyphs" textLength="175" x="575" y="419.1948">method !sha1 ( Str $s --&gt; Str )</text><text fill="#000000" font-family="sans-serif" font-size="11" lengthAdjust="spacingAndGlyphs" textLength="248" x="575" y="431.9995">method !sha1-content ( Str $object --&gt; Str )</text><text fill="#000000" font-family="sans-serif" font-size="11" lengthAdjust="spacingAndGlyphs" textLength="248" x="575" y="444.8042">method !find-in-db ( List:D $query --&gt; Bool )</text><text fill="#000000" font-family="sans-serif" font-size="11" lengthAdjust="spacingAndGlyphs" textLength="120" x="575" y="457.6089">method !add-meta ( )</text><!--class OTF--><rect fill="#FEFECE" filter="url(#fabqdou)" height="73.6094" style="stroke: #A80036; stroke-width: 1.5;" width="305" x="639.5" y="559"/><ellipse cx="694.75" cy="575" fill="#ADD1B2" rx="11" ry="11" style="stroke: #A80036; stroke-width: 1.0;"/><path d="M697.7188,580.6406 Q697.1406,580.9375 696.5,581.0859 Q695.8594,581.2344 695.1563,581.2344 Q692.6563,581.2344 691.3359,579.5859 Q690.0156,577.9375 690.0156,574.8125 Q690.0156,571.6875 691.3359,570.0313 Q692.6563,568.375 695.1563,568.375 Q695.8594,568.375 696.5078,568.5313 Q697.1563,568.6875 697.7188,568.9844 L697.7188,571.7031 Q697.0938,571.125 696.5,570.8516 Q695.9063,570.5781 695.2813,570.5781 Q693.9375,570.5781 693.25,571.6484 Q692.5625,572.7188 692.5625,574.8125 Q692.5625,576.9063 693.25,577.9766 Q693.9375,579.0469 695.2813,579.0469 Q695.9063,579.0469 696.5,578.7734 Q697.0938,578.5 697.7188,577.9219 L697.7188,580.6406 Z "/><text fill="#000000" font-family="sans-serif" font-size="12" lengthAdjust="spacingAndGlyphs" textLength="186" x="715.25" y="579.1543">Library::Metadata::Object::File</text><line style="stroke: #A80036; stroke-width: 1.5;" x1="640.5" x2="943.5" y1="591" y2="591"/><line style="stroke: #A80036; stroke-width: 1.5;" x1="640.5" x2="943.5" y1="599" y2="599"/><text fill="#000000" font-family="sans-serif" font-size="11" lengthAdjust="spacingAndGlyphs" textLength="293" x="645.5" y="613.2104">method init-meta ( Str :$object, ObjectType :$type )</text><text fill="#000000" font-family="sans-serif" font-size="11" lengthAdjust="spacingAndGlyphs" textLength="135" x="645.5" y="626.0151">method update-meta ( )</text><!--class OTD--><rect fill="#FEFECE" filter="url(#fabqdou)" height="73.6094" style="stroke: #A80036; stroke-width: 1.5;" width="305" x="979.5" y="559"/><ellipse cx="1017.9" cy="575" fill="#ADD1B2" rx="11" ry="11" style="stroke: #A80036; stroke-width: 1.0;"/><path d="M1020.8688,580.6406 Q1020.2906,580.9375 1019.65,581.0859 Q1019.0094,581.2344 1018.3063,581.2344 Q1015.8063,581.2344 1014.4859,579.5859 Q1013.1656,577.9375 1013.1656,574.8125 Q1013.1656,571.6875 1014.4859,570.0313 Q1015.8063,568.375 1018.3063,568.375 Q1019.0094,568.375 1019.6578,568.5313 Q1020.3063,568.6875 1020.8688,568.9844 L1020.8688,571.7031 Q1020.2438,571.125 1019.65,570.8516 Q1019.0563,570.5781 1018.4313,570.5781 Q1017.0875,570.5781 1016.4,571.6484 Q1015.7125,572.7188 1015.7125,574.8125 Q1015.7125,576.9063 1016.4,577.9766 Q1017.0875,579.0469 1018.4313,579.0469 Q1019.0563,579.0469 1019.65,578.7734 Q1020.2438,578.5 1020.8688,577.9219 L1020.8688,580.6406 Z "/><text fill="#000000" font-family="sans-serif" font-size="12" lengthAdjust="spacingAndGlyphs" textLength="221" x="1037.1" y="579.1543">Library::Metadata::Object::Directory</text><line style="stroke: #A80036; stroke-width: 1.5;" x1="980.5" x2="1283.5" y1="591" y2="591"/><line style="stroke: #A80036; stroke-width: 1.5;" x1="980.5" x2="1283.5" y1="599" y2="599"/><text fill="#000000" font-family="sans-serif" font-size="11" lengthAdjust="spacingAndGlyphs" textLength="293" x="985.5" y="613.2104">method init-meta ( Str :$object, ObjectType :$type )</text><text fill="#000000" font-family="sans-serif" font-size="11" lengthAdjust="spacingAndGlyphs" textLength="135" x="985.5" y="626.0151">method update-meta ( )</text><!--class Client--><rect fill="#FEFECE" filter="url(#fabqdou)" height="48" style="stroke: #A80036; stroke-width: 1.5;" width="67" x="758.5" y="874"/><ellipse cx="773.5" cy="890" fill="#ADD1B2" rx="11" ry="11" style="stroke: #A80036; stroke-width: 1.0;"/><path d="M776.4688,895.6406 Q775.8906,895.9375 775.25,896.0859 Q774.6094,896.2344 773.9063,896.2344 Q771.4063,896.2344 770.0859,894.5859 Q768.7656,892.9375 768.7656,889.8125 Q768.7656,886.6875 770.0859,885.0313 Q771.4063,883.375 773.9063,883.375 Q774.6094,883.375 775.2578,883.5313 Q775.9063,883.6875 776.4688,883.9844 L776.4688,886.7031 Q775.8438,886.125 775.25,885.8516 Q774.6563,885.5781 774.0313,885.5781 Q772.6875,885.5781 772,886.6484 Q771.3125,887.7188 771.3125,889.8125 Q771.3125,891.9063 772,892.9766 Q772.6875,894.0469 774.0313,894.0469 Q774.6563,894.0469 775.25,893.7734 Q775.8438,893.5 776.4688,892.9219 L776.4688,895.6406 Z "/><text fill="#000000" font-family="sans-serif" font-size="12" lengthAdjust="spacingAndGlyphs" textLength="35" x="787.5" y="894.1543">Client</text><line style="stroke: #A80036; stroke-width: 1.5;" x1="759.5" x2="824.5" y1="906" y2="906"/><line style="stroke: #A80036; stroke-width: 1.5;" x1="759.5" x2="824.5" y1="914" y2="914"/><path d="M204.167,347.5 C231.386,347.5 258.605,347.5 285.824,347.5 " fill="none" style="stroke: #A80036; stroke-width: 1.0;"/><polygon fill="#A80036" points="299.186,347.5,293.186,343.5,287.186,347.5,293.186,351.5,299.186,347.5" style="stroke: #A80036; stroke-width: 1.0;"/><polygon fill="#A80036" points="191.075,347.5,200.075,351.5,196.075,347.5,200.075,343.5,191.075,347.5" style="stroke: #A80036; stroke-width: 1.0;"/><line style="stroke: #A80036; stroke-width: 1.0;" x1="196.075" x2="204.075" y1="347.5" y2="347.5"/><path d="M409,171.21 C409,206.522 409,252.266 409,288.17 " fill="none" style="stroke: #A80036; stroke-width: 1.0;"/><polygon fill="#A80036" points="409,301.406,413,295.406,409,289.406,405,295.406,409,301.406" style="stroke: #A80036; stroke-width: 1.0;"/><path d="M412.668,393.712 C415.323,426.429 418.989,471.608 422.175,510.876 " fill="none" style="stroke: #A80036; stroke-width: 1.0;"/><polygon fill="#A80036" points="423.234,523.94,426.7356,517.6361,422.2634,511.9793,418.7618,518.2832,423.234,523.94" style="stroke: #A80036; stroke-width: 1.0;"/><path d="M240.499,596 C230.869,596 221.239,596 211.609,596 " fill="none" style="stroke: #A80036; stroke-width: 1.0;"/><polygon fill="#A80036" points="198.18,596,207.18,600,203.18,596,207.18,592,198.18,596" style="stroke: #A80036; stroke-width: 1.0;"/><line style="stroke: #A80036; stroke-width: 1.0;" x1="203.18" x2="211.18" y1="596" y2="596"/><polygon fill="#A80036" points="253.631,596,247.631,592,241.631,596,247.631,600,253.631,596" style="stroke: #A80036; stroke-width: 1.0;"/><path d="M289.536,674.58 C247.507,697.959 203.899,722.217 171.17,740.423 " fill="none" style="stroke: #A80036; stroke-width: 1.0;"/><polygon fill="#A80036" points="159.626,746.844,169.4355,745.964,163.9953,744.4132,165.5461,738.973,159.626,746.844" style="stroke: #A80036; stroke-width: 1.0;"/><line style="stroke: #A80036; stroke-width: 1.0;" x1="163.9953" x2="170.987" y1="744.4132" y2="740.525"/><polygon fill="#A80036" points="301.158,668.115,293.9702,667.5358,290.671,673.948,297.8588,674.5271,301.158,668.115" style="stroke: #A80036; stroke-width: 1.0;"/><path d="M792,827.6729 C792,838.8004 792,850.22 792,860.4982 " fill="none" style="stroke: #A80036; stroke-width: 1.0;"/><polygon fill="#A80036" points="792,873.6717,796,867.6717,792,861.6717,788,867.6717,792,873.6717" style="stroke: #A80036; stroke-width: 1.0;"/><polygon fill="#A80036" points="792,814.319,788,823.319,792,819.319,796,823.319,792,814.319" style="stroke: #A80036; stroke-width: 1.0;"/><line style="stroke: #A80036; stroke-width: 1.0;" x1="792" x2="792" y1="819.319" y2="827.3193"/><path d="M596.32,676.742 C633.381,694.405 671.236,712.446 703.652,727.895 " fill="none" style="stroke: #A80036; stroke-width: 1.0;"/><polygon fill="none" points="593.26,683.038,578.217,668.115,599.283,670.4,593.26,683.038" style="stroke: #A80036; stroke-width: 1.0;"/><path d="M792,646.56 C792,667.886 792,692.899 792,714.813 " fill="none" style="stroke: #A80036; stroke-width: 1.0;"/><polygon fill="#A80036" points="792,727.996,796,721.996,792,715.996,788,721.996,792,727.996" style="stroke: #A80036; stroke-width: 1.0;"/><polygon fill="#A80036" points="792,633.266,788,642.266,792,638.266,796,642.266,792,633.266" style="stroke: #A80036; stroke-width: 1.0;"/><line style="stroke: #A80036; stroke-width: 1.0;" x1="792" x2="792" y1="638.266" y2="646.2665"/><path d="M1049.39,639.033 C1000.208,664.059 937.621,695.905 886.479,721.927 " fill="none" style="stroke: #A80036; stroke-width: 1.0;"/><polygon fill="#A80036" points="874.748,727.896,881.9095,728.7401,885.4431,722.4541,878.2816,721.61,874.748,727.896" style="stroke: #A80036; stroke-width: 1.0;"/><polygon fill="#A80036" points="1061.14,633.056,1051.3048,633.5752,1056.6844,635.3247,1054.9348,640.7043,1061.14,633.056" style="stroke: #A80036; stroke-width: 1.0;"/><line style="stroke: #A80036; stroke-width: 1.0;" x1="1056.6844" x2="1049.555" y1="635.3247" y2="638.9515"/><path d="M800.979,484.337 C798.74,511.935 796.569,538.683 794.924,558.967 " fill="none" style="stroke: #A80036; stroke-width: 1.0;"/><polygon fill="none" points="794.02,483.54,802.615,464.171,807.974,484.672,794.02,483.54" style="stroke: #A80036; stroke-width: 1.0;"/><path d="M978.143,476.482 C1017.52,506.814 1056.4,536.763 1085.22,558.967 " fill="none" style="stroke: #A80036; stroke-width: 1.0;"/><polygon fill="none" points="973.734,481.922,962.162,464.171,982.278,470.831,973.734,481.922" style="stroke: #A80036; stroke-width: 1.0;"/></g></svg>