<?xml version="1.0" encoding="UTF-8" standalone="no"?><svg xmlns="http://www.w3.org/2000/svg" xmlns:xlink="http://www.w3.org/1999/xlink" contentScriptType="application/ecmascript" contentStyleType="text/css" height="760px" preserveAspectRatio="none" style="width:1377px;height:760px;" version="1.1" viewBox="0 0 1377 760" width="1377px" zoomAndPan="magnify"><defs><filter height="300%" id="fvcf5x3" width="300%" x="-1" y="-1"><feGaussianBlur result="blurOut" stdDeviation="2.0"/><feColorMatrix in="blurOut" result="blurOut2" type="matrix" values="0 0 0 0 0 0 0 0 0 0 0 0 0 0 0 0 0 0 .4 0"/><feOffset dx="4.0" dy="4.0" in="blurOut2" result="blurOut3"/><feBlend in="SourceGraphic" in2="blurOut3" mode="normal"/></filter></defs><g><!--cluster MongoDB driver--><polygon fill="#AAAAAA" filter="url(#fvcf5x3)" points="1178.5,250,1310.5,250,1317.5,272.2969,1370.5,272.2969,1370.5,734,1178.5,734,1178.5,250" style="stroke: #000000; stroke-width: 2.0;"/><line style="stroke: #000000; stroke-width: 2.0;" x1="1178.5" x2="1317.5" y1="272.2969" y2="272.2969"/><text fill="#000000" font-family="sans-serif" font-size="14" font-weight="bold" lengthAdjust="spacingAndGlyphs" textLength="126" x="1182.5" y="264.9951">MongoDB driver</text><!--cluster Metadata library --><polygon fill="#FFFFFF" filter="url(#fvcf5x3)" points="91.5,24,229.5,24,236.5,46.2969,1154.5,46.2969,1154.5,753,91.5,753,91.5,24" style="stroke: #000000; stroke-width: 2.0;"/><line style="stroke: #000000; stroke-width: 2.0;" x1="91.5" x2="236.5" y1="46.2969" y2="46.2969"/><text fill="#000000" font-family="sans-serif" font-size="14" font-weight="bold" lengthAdjust="spacingAndGlyphs" textLength="127" x="95.5" y="38.9951">Metadata library</text><!--class MC--><rect fill="#FEFECE" filter="url(#fvcf5x3)" height="48" style="stroke: #A80036; stroke-width: 1.5;" width="134" x="1200.5" y="285"/><ellipse cx="1215.5" cy="301" fill="#ADD1B2" rx="11" ry="11" style="stroke: #A80036; stroke-width: 1.0;"/><path d="M1218.4688,306.6406 Q1217.8906,306.9375 1217.25,307.0859 Q1216.6094,307.2344 1215.9063,307.2344 Q1213.4063,307.2344 1212.0859,305.5859 Q1210.7656,303.9375 1210.7656,300.8125 Q1210.7656,297.6875 1212.0859,296.0313 Q1213.4063,294.375 1215.9063,294.375 Q1216.6094,294.375 1217.2578,294.5313 Q1217.9063,294.6875 1218.4688,294.9844 L1218.4688,297.7031 Q1217.8438,297.125 1217.25,296.8516 Q1216.6563,296.5781 1216.0313,296.5781 Q1214.6875,296.5781 1214,297.6484 Q1213.3125,298.7188 1213.3125,300.8125 Q1213.3125,302.9063 1214,303.9766 Q1214.6875,305.0469 1216.0313,305.0469 Q1216.6563,305.0469 1217.25,304.7734 Q1217.8438,304.5 1218.4688,303.9219 L1218.4688,306.6406 Z "/><text fill="#000000" font-family="sans-serif" font-size="12" lengthAdjust="spacingAndGlyphs" textLength="102" x="1229.5" y="305.1543">MongoDB::Client</text><line style="stroke: #A80036; stroke-width: 1.5;" x1="1201.5" x2="1333.5" y1="317" y2="317"/><line style="stroke: #A80036; stroke-width: 1.5;" x1="1201.5" x2="1333.5" y1="325" y2="325"/><!--class MDB--><rect fill="#FEFECE" filter="url(#fvcf5x3)" height="48" style="stroke: #A80036; stroke-width: 1.5;" width="160" x="1194.5" y="495"/><ellipse cx="1209.5" cy="511" fill="#ADD1B2" rx="11" ry="11" style="stroke: #A80036; stroke-width: 1.0;"/><path d="M1212.4688,516.6406 Q1211.8906,516.9375 1211.25,517.0859 Q1210.6094,517.2344 1209.9063,517.2344 Q1207.4063,517.2344 1206.0859,515.5859 Q1204.7656,513.9375 1204.7656,510.8125 Q1204.7656,507.6875 1206.0859,506.0313 Q1207.4063,504.375 1209.9063,504.375 Q1210.6094,504.375 1211.2578,504.5313 Q1211.9063,504.6875 1212.4688,504.9844 L1212.4688,507.7031 Q1211.8438,507.125 1211.25,506.8516 Q1210.6563,506.5781 1210.0313,506.5781 Q1208.6875,506.5781 1208,507.6484 Q1207.3125,508.7188 1207.3125,510.8125 Q1207.3125,512.9063 1208,513.9766 Q1208.6875,515.0469 1210.0313,515.0469 Q1210.6563,515.0469 1211.25,514.7734 Q1211.8438,514.5 1212.4688,513.9219 L1212.4688,516.6406 Z "/><text fill="#000000" font-family="sans-serif" font-size="12" lengthAdjust="spacingAndGlyphs" textLength="128" x="1223.5" y="515.1543">MongoDB::Database</text><line style="stroke: #A80036; stroke-width: 1.5;" x1="1195.5" x2="1353.5" y1="527" y2="527"/><line style="stroke: #A80036; stroke-width: 1.5;" x1="1195.5" x2="1353.5" y1="535" y2="535"/><!--class MCL--><rect fill="#FEFECE" filter="url(#fvcf5x3)" height="48" style="stroke: #A80036; stroke-width: 1.5;" width="160" x="1194.5" y="670"/><ellipse cx="1209.5" cy="686" fill="#ADD1B2" rx="11" ry="11" style="stroke: #A80036; stroke-width: 1.0;"/><path d="M1212.4688,691.6406 Q1211.8906,691.9375 1211.25,692.0859 Q1210.6094,692.2344 1209.9063,692.2344 Q1207.4063,692.2344 1206.0859,690.5859 Q1204.7656,688.9375 1204.7656,685.8125 Q1204.7656,682.6875 1206.0859,681.0313 Q1207.4063,679.375 1209.9063,679.375 Q1210.6094,679.375 1211.2578,679.5313 Q1211.9063,679.6875 1212.4688,679.9844 L1212.4688,682.7031 Q1211.8438,682.125 1211.25,681.8516 Q1210.6563,681.5781 1210.0313,681.5781 Q1208.6875,681.5781 1208,682.6484 Q1207.3125,683.7188 1207.3125,685.8125 Q1207.3125,687.9063 1208,688.9766 Q1208.6875,690.0469 1210.0313,690.0469 Q1210.6563,690.0469 1211.25,689.7734 Q1211.8438,689.5 1212.4688,688.9219 L1212.4688,691.6406 Z "/><text fill="#000000" font-family="sans-serif" font-size="12" lengthAdjust="spacingAndGlyphs" textLength="128" x="1223.5" y="690.1543">MongoDB::Collection</text><line style="stroke: #A80036; stroke-width: 1.5;" x1="1195.5" x2="1353.5" y1="702" y2="702"/><line style="stroke: #A80036; stroke-width: 1.5;" x1="1195.5" x2="1353.5" y1="710" y2="710"/><!--class L--><rect fill="#FEFECE" filter="url(#fvcf5x3)" height="92.3516" style="stroke: #A80036; stroke-width: 1.5;" width="219" x="881" y="263"/><ellipse cx="954.25" cy="281.9688" fill="#FF8800" rx="11" ry="11" style="stroke: #A80036; stroke-width: 1.0;"/><path d="M954.0469,277.6406 L954.0469,281.2656 L955.0469,281.2656 Q956.25,281.2656 956.7344,280.8594 Q957.2188,280.4531 957.2188,279.4531 Q957.2188,278.4531 956.7344,278.0469 Q956.25,277.6406 955.0469,277.6406 L954.0469,277.6406 Z M951.5938,275.5781 L954.9531,275.5781 Q957.5156,275.5781 958.6406,276.4922 Q959.7656,277.4063 959.7656,279.4531 Q959.7656,281.5 958.6406,282.4141 Q957.5156,283.3281 954.9531,283.3281 L954.0469,283.3281 L954.0469,287.9688 L951.5938,287.9688 L951.5938,275.5781 Z "/><text fill="#000000" font-family="sans-serif" font-size="12" font-style="italic" lengthAdjust="spacingAndGlyphs" textLength="68" x="972.75" y="279.1387">«package»</text><text fill="#000000" font-family="sans-serif" font-size="12" lengthAdjust="spacingAndGlyphs" textLength="41" x="986.25" y="293.1074">Library</text><line style="stroke: #A80036; stroke-width: 1.5;" x1="882" x2="1099" y1="300.9375" y2="300.9375"/><text fill="#000000" font-family="sans-serif" font-size="11" lengthAdjust="spacingAndGlyphs" textLength="191" x="887" y="315.1479">our Library::Configuration $lib-cfg</text><text fill="#000000" font-family="sans-serif" font-size="11" lengthAdjust="spacingAndGlyphs" textLength="157" x="887" y="327.9526">our MongoDB::Client $client</text><line style="stroke: #A80036; stroke-width: 1.5;" x1="882" x2="1099" y1="334.5469" y2="334.5469"/><text fill="#000000" font-family="sans-serif" font-size="11" lengthAdjust="spacingAndGlyphs" textLength="207" x="887" y="348.7573">initialize-library( Str :$library-config )</text><!--class LC--><rect fill="#FEFECE" filter="url(#fvcf5x3)" height="112.0234" style="stroke: #A80036; stroke-width: 1.5;" width="239" x="871" y="59"/><ellipse cx="919.75" cy="75" fill="#ADD1B2" rx="11" ry="11" style="stroke: #A80036; stroke-width: 1.0;"/><path d="M922.7188,80.6406 Q922.1406,80.9375 921.5,81.0859 Q920.8594,81.2344 920.1563,81.2344 Q917.6563,81.2344 916.3359,79.5859 Q915.0156,77.9375 915.0156,74.8125 Q915.0156,71.6875 916.3359,70.0313 Q917.6563,68.375 920.1563,68.375 Q920.8594,68.375 921.5078,68.5313 Q922.1563,68.6875 922.7188,68.9844 L922.7188,71.7031 Q922.0938,71.125 921.5,70.8516 Q920.9063,70.5781 920.2813,70.5781 Q918.9375,70.5781 918.25,71.6484 Q917.5625,72.7188 917.5625,74.8125 Q917.5625,76.9063 918.25,77.9766 Q918.9375,79.0469 920.2813,79.0469 Q920.9063,79.0469 921.5,78.7734 Q922.0938,78.5 922.7188,77.9219 L922.7188,80.6406 Z "/><text fill="#000000" font-family="sans-serif" font-size="12" lengthAdjust="spacingAndGlyphs" textLength="133" x="940.25" y="79.1543">Library::Configuration</text><line style="stroke: #A80036; stroke-width: 1.5;" x1="872" x2="1109" y1="91" y2="91"/><text fill="#000000" font-family="sans-serif" font-size="11" lengthAdjust="spacingAndGlyphs" textLength="143" x="877" y="105.2104">has Str $!config-filename</text><text fill="#000000" font-family="sans-serif" font-size="11" lengthAdjust="spacingAndGlyphs" textLength="103" x="877" y="118.0151">has Hash $.config</text><line style="stroke: #A80036; stroke-width: 1.5;" x1="872" x2="1109" y1="124.6094" y2="124.6094"/><text fill="#000000" font-family="sans-serif" font-size="11" lengthAdjust="spacingAndGlyphs" textLength="227" x="877" y="138.8198">submethod BUILD ( Str :$library-config )</text><text fill="#000000" font-family="sans-serif" font-size="11" lengthAdjust="spacingAndGlyphs" textLength="90" x="877" y="151.6245">method save ( )</text><text fill="#000000" font-family="sans-serif" font-size="11" lengthAdjust="spacingAndGlyphs" textLength="136" x="877" y="164.4292">method !check-config ( )</text><!--class LD--><rect fill="#FEFECE" filter="url(#fvcf5x3)" height="143.5703" style="stroke: #A80036; stroke-width: 1.5;" width="350" x="788.5" y="447"/><ellipse cx="904.25" cy="465.9688" fill="#FFFF00" rx="11" ry="11" style="stroke: #A80036; stroke-width: 1.0;"/><path d="M905.4531,466.1094 Q905.8125,466.1875 906.0859,466.4609 Q906.3594,466.7344 906.75,467.5156 L908.9844,471.9688 L906.2969,471.9688 L904.7969,468.8438 Q904.7344,468.7031 904.625,468.4688 Q903.9688,467.0781 903.0781,467.0781 L902.2969,467.0781 L902.2969,471.9688 L899.8594,471.9688 L899.8594,459.5781 L903.3906,459.5781 Q905.7813,459.5781 906.8203,460.4219 Q907.8594,461.2656 907.8594,463.1719 Q907.8594,464.4531 907.2422,465.2109 Q906.625,465.9688 905.4531,466.1094 Z M902.2969,461.6406 L902.2969,465.0156 L903.4531,465.0156 Q904.4688,465.0156 904.8984,464.6172 Q905.3281,464.2188 905.3281,463.3125 Q905.3281,462.4219 904.8984,462.0313 Q904.4688,461.6406 903.4531,461.6406 L902.2969,461.6406 Z "/><text fill="#000000" font-family="sans-serif" font-size="12" font-style="italic" lengthAdjust="spacingAndGlyphs" textLength="38" x="960.75" y="463.1387">«role»</text><text fill="#000000" font-family="sans-serif" font-size="12" lengthAdjust="spacingAndGlyphs" textLength="110" x="924.75" y="477.1074">Library::Database</text><line style="stroke: #A80036; stroke-width: 1.5;" x1="789.5" x2="1137.5" y1="484.9375" y2="484.9375"/><text fill="#000000" font-family="sans-serif" font-size="11" lengthAdjust="spacingAndGlyphs" textLength="207" x="794.5" y="499.1479">has MongoDB::Database $!database</text><text fill="#000000" font-family="sans-serif" font-size="11" lengthAdjust="spacingAndGlyphs" textLength="300" x="794.5" y="511.9526">has MongoDB::Collection $!collection handles &lt;find&gt;</text><line style="stroke: #A80036; stroke-width: 1.5;" x1="789.5" x2="1137.5" y1="518.5469" y2="518.5469"/><text fill="#000000" font-family="sans-serif" font-size="11" lengthAdjust="spacingAndGlyphs" textLength="338" x="794.5" y="532.7573">method init ( Str:D :$database-key!, Str:D :$collection-key! )</text><text fill="#000000" font-family="sans-serif" font-size="11" lengthAdjust="spacingAndGlyphs" textLength="327" x="794.5" y="545.562">method insert ( Array $documents --&gt; BSON::Document )</text><text fill="#000000" font-family="sans-serif" font-size="11" lengthAdjust="spacingAndGlyphs" textLength="308" x="794.5" y="558.3667">method delete ( Array $deletes --&gt; BSON::Document )</text><text fill="#000000" font-family="sans-serif" font-size="11" lengthAdjust="spacingAndGlyphs" textLength="284" x="794.5" y="571.1714">method count ( List $query --&gt; BSON::Document )</text><text fill="#000000" font-family="sans-serif" font-size="11" lengthAdjust="spacingAndGlyphs" textLength="269" x="794.5" y="583.9761">method drop-database ( --&gt; BSON::Document )</text><!--class LMD--><rect fill="#FEFECE" filter="url(#fvcf5x3)" height="86.4141" style="stroke: #A80036; stroke-width: 1.5;" width="315" x="275" y="651"/><ellipse cx="339.25" cy="667" fill="#ADD1B2" rx="11" ry="11" style="stroke: #A80036; stroke-width: 1.0;"/><path d="M342.2188,672.6406 Q341.6406,672.9375 341,673.0859 Q340.3594,673.2344 339.6563,673.2344 Q337.1563,673.2344 335.8359,671.5859 Q334.5156,669.9375 334.5156,666.8125 Q334.5156,663.6875 335.8359,662.0313 Q337.1563,660.375 339.6563,660.375 Q340.3594,660.375 341.0078,660.5313 Q341.6563,660.6875 342.2188,660.9844 L342.2188,663.7031 Q341.5938,663.125 341,662.8516 Q340.4063,662.5781 339.7813,662.5781 Q338.4375,662.5781 337.75,663.6484 Q337.0625,664.7188 337.0625,666.8125 Q337.0625,668.9063 337.75,669.9766 Q338.4375,671.0469 339.7813,671.0469 Q340.4063,671.0469 341,670.7734 Q341.5938,670.5 342.2188,669.9219 L342.2188,672.6406 Z "/><text fill="#000000" font-family="sans-serif" font-size="12" lengthAdjust="spacingAndGlyphs" textLength="178" x="359.75" y="671.1543">Library::Metadata::Database</text><line style="stroke: #A80036; stroke-width: 1.5;" x1="276" x2="589" y1="683" y2="683"/><text fill="#000000" font-family="sans-serif" font-size="11" lengthAdjust="spacingAndGlyphs" textLength="250" x="281" y="697.2104">has Library::MetaData::Object $!meta-object</text><line style="stroke: #A80036; stroke-width: 1.5;" x1="276" x2="589" y1="703.8047" y2="703.8047"/><text fill="#000000" font-family="sans-serif" font-size="11" lengthAdjust="spacingAndGlyphs" textLength="117" x="281" y="718.0151">submethod BUILD ( )</text><text fill="#000000" font-family="sans-serif" font-size="11" lengthAdjust="spacingAndGlyphs" textLength="303" x="281" y="730.8198">method update-meta( Str $object, ObjectType $type )</text><!--class Obj--><rect fill="#FEFECE" filter="url(#fvcf5x3)" height="156.375" style="stroke: #A80036; stroke-width: 1.5;" width="415" x="251" y="231"/><ellipse cx="375.75" cy="249.9688" fill="#FFFF00" rx="11" ry="11" style="stroke: #A80036; stroke-width: 1.0;"/><path d="M376.9531,250.1094 Q377.3125,250.1875 377.5859,250.4609 Q377.8594,250.7344 378.25,251.5156 L380.4844,255.9688 L377.7969,255.9688 L376.2969,252.8438 Q376.2344,252.7031 376.125,252.4688 Q375.4688,251.0781 374.5781,251.0781 L373.7969,251.0781 L373.7969,255.9688 L371.3594,255.9688 L371.3594,243.5781 L374.8906,243.5781 Q377.2813,243.5781 378.3203,244.4219 Q379.3594,245.2656 379.3594,247.1719 Q379.3594,248.4531 378.7422,249.2109 Q378.125,249.9688 376.9531,250.1094 Z M373.7969,245.6406 L373.7969,249.0156 L374.9531,249.0156 Q375.9688,249.0156 376.3984,248.6172 Q376.8281,248.2188 376.8281,247.3125 Q376.8281,246.4219 376.3984,246.0313 Q375.9688,245.6406 374.9531,245.6406 L373.7969,245.6406 Z "/><text fill="#000000" font-family="sans-serif" font-size="12" font-style="italic" lengthAdjust="spacingAndGlyphs" textLength="38" x="455.75" y="247.1387">«role»</text><text fill="#000000" font-family="sans-serif" font-size="12" lengthAdjust="spacingAndGlyphs" textLength="157" x="396.25" y="261.1074">Library::Metadata::Object</text><line style="stroke: #A80036; stroke-width: 1.5;" x1="252" x2="665" y1="268.9375" y2="268.9375"/><text fill="#000000" font-family="sans-serif" font-size="11" lengthAdjust="spacingAndGlyphs" textLength="195" x="257" y="283.1479">has BSON::Document $!meta-data</text><text fill="#000000" font-family="sans-serif" font-size="11" lengthAdjust="spacingAndGlyphs" textLength="341" x="257" y="295.9526">has $!dbo where  .^name ~~ 'Library::Metadata::Database'</text><line style="stroke: #A80036; stroke-width: 1.5;" x1="252" x2="665" y1="302.5469" y2="302.5469"/><text fill="#000000" font-family="sans-serif" font-size="11" lengthAdjust="spacingAndGlyphs" textLength="337" x="257" y="316.7573">submethod BUILD ( :$dbo, Str :$object, ObjectType :$type )</text><text fill="#000000" font-family="sans-serif" font-size="11" lengthAdjust="spacingAndGlyphs" textLength="215" x="257" y="329.562">method meta ( --&gt; BSON::Document )</text><text fill="#000000" font-family="sans-serif" font-size="11" lengthAdjust="spacingAndGlyphs" textLength="403" x="257" y="342.3667">method init-meta ( Str :$object, ObjectType :$type ) { ... }   # Abstract</text><text fill="#000000" font-family="sans-serif" font-size="11" lengthAdjust="spacingAndGlyphs" textLength="237" x="257" y="355.1714">method update-meta ( ) { ... } # Abstract</text><text fill="#000000" font-family="sans-serif" font-size="11" lengthAdjust="spacingAndGlyphs" textLength="175" x="257" y="367.9761">method !sha1 ( Str $s --&gt; Str )</text><text fill="#000000" font-family="sans-serif" font-size="11" lengthAdjust="spacingAndGlyphs" textLength="248" x="257" y="380.7808">method !sha1-content ( Str $object --&gt; Str )</text><!--class OTF--><rect fill="#FEFECE" filter="url(#fvcf5x3)" height="73.6094" style="stroke: #A80036; stroke-width: 1.5;" width="305" x="108" y="482"/><ellipse cx="163.25" cy="498" fill="#ADD1B2" rx="11" ry="11" style="stroke: #A80036; stroke-width: 1.0;"/><path d="M166.2188,503.6406 Q165.6406,503.9375 165,504.0859 Q164.3594,504.2344 163.6563,504.2344 Q161.1563,504.2344 159.8359,502.5859 Q158.5156,500.9375 158.5156,497.8125 Q158.5156,494.6875 159.8359,493.0313 Q161.1563,491.375 163.6563,491.375 Q164.3594,491.375 165.0078,491.5313 Q165.6563,491.6875 166.2188,491.9844 L166.2188,494.7031 Q165.5938,494.125 165,493.8516 Q164.4063,493.5781 163.7813,493.5781 Q162.4375,493.5781 161.75,494.6484 Q161.0625,495.7188 161.0625,497.8125 Q161.0625,499.9063 161.75,500.9766 Q162.4375,502.0469 163.7813,502.0469 Q164.4063,502.0469 165,501.7734 Q165.5938,501.5 166.2188,500.9219 L166.2188,503.6406 Z "/><text fill="#000000" font-family="sans-serif" font-size="12" lengthAdjust="spacingAndGlyphs" textLength="186" x="183.75" y="502.1543">Library::Metadata::Object::File</text><line style="stroke: #A80036; stroke-width: 1.5;" x1="109" x2="412" y1="514" y2="514"/><line style="stroke: #A80036; stroke-width: 1.5;" x1="109" x2="412" y1="522" y2="522"/><text fill="#000000" font-family="sans-serif" font-size="11" lengthAdjust="spacingAndGlyphs" textLength="293" x="114" y="536.2104">method init-meta ( Str :$object, ObjectType :$type )</text><text fill="#000000" font-family="sans-serif" font-size="11" lengthAdjust="spacingAndGlyphs" textLength="135" x="114" y="549.0151">method update-meta ( )</text><!--class OTD--><rect fill="#FEFECE" filter="url(#fvcf5x3)" height="73.6094" style="stroke: #A80036; stroke-width: 1.5;" width="305" x="448" y="482"/><ellipse cx="486.4" cy="498" fill="#ADD1B2" rx="11" ry="11" style="stroke: #A80036; stroke-width: 1.0;"/><path d="M489.3688,503.6406 Q488.7906,503.9375 488.15,504.0859 Q487.5094,504.2344 486.8063,504.2344 Q484.3063,504.2344 482.9859,502.5859 Q481.6656,500.9375 481.6656,497.8125 Q481.6656,494.6875 482.9859,493.0313 Q484.3063,491.375 486.8063,491.375 Q487.5094,491.375 488.1578,491.5313 Q488.8063,491.6875 489.3688,491.9844 L489.3688,494.7031 Q488.7438,494.125 488.15,493.8516 Q487.5563,493.5781 486.9313,493.5781 Q485.5875,493.5781 484.9,494.6484 Q484.2125,495.7188 484.2125,497.8125 Q484.2125,499.9063 484.9,500.9766 Q485.5875,502.0469 486.9313,502.0469 Q487.5563,502.0469 488.15,501.7734 Q488.7438,501.5 489.3688,500.9219 L489.3688,503.6406 Z "/><text fill="#000000" font-family="sans-serif" font-size="12" lengthAdjust="spacingAndGlyphs" textLength="221" x="505.6" y="502.1543">Library::Metadata::Object::Directory</text><line style="stroke: #A80036; stroke-width: 1.5;" x1="449" x2="752" y1="514" y2="514"/><line style="stroke: #A80036; stroke-width: 1.5;" x1="449" x2="752" y1="522" y2="522"/><text fill="#000000" font-family="sans-serif" font-size="11" lengthAdjust="spacingAndGlyphs" textLength="293" x="454" y="536.2104">method init-meta ( Str :$object, ObjectType :$type )</text><text fill="#000000" font-family="sans-serif" font-size="11" lengthAdjust="spacingAndGlyphs" textLength="135" x="454" y="549.0151">method update-meta ( )</text><!--class Client--><rect fill="#FEFECE" filter="url(#fvcf5x3)" height="48" style="stroke: #A80036; stroke-width: 1.5;" width="67" x="6" y="495"/><ellipse cx="21" cy="511" fill="#ADD1B2" rx="11" ry="11" style="stroke: #A80036; stroke-width: 1.0;"/><path d="M23.9688,516.6406 Q23.3906,516.9375 22.75,517.0859 Q22.1094,517.2344 21.4063,517.2344 Q18.9063,517.2344 17.5859,515.5859 Q16.2656,513.9375 16.2656,510.8125 Q16.2656,507.6875 17.5859,506.0313 Q18.9063,504.375 21.4063,504.375 Q22.1094,504.375 22.7578,504.5313 Q23.4063,504.6875 23.9688,504.9844 L23.9688,507.7031 Q23.3438,507.125 22.75,506.8516 Q22.1563,506.5781 21.5313,506.5781 Q20.1875,506.5781 19.5,507.6484 Q18.8125,508.7188 18.8125,510.8125 Q18.8125,512.9063 19.5,513.9766 Q20.1875,515.0469 21.5313,515.0469 Q22.1563,515.0469 22.75,514.7734 Q23.3438,514.5 23.9688,513.9219 L23.9688,516.6406 Z "/><text fill="#000000" font-family="sans-serif" font-size="12" lengthAdjust="spacingAndGlyphs" textLength="35" x="35" y="515.1543">Client</text><line style="stroke: #A80036; stroke-width: 1.5;" x1="7" x2="72" y1="527" y2="527"/><line style="stroke: #A80036; stroke-width: 1.5;" x1="7" x2="72" y1="535" y2="535"/><path d="M1187.19,309 C1162.59,309 1137.99,309 1113.39,309 " fill="none" style="stroke: #A80036; stroke-width: 1.0;"/><polygon fill="#A80036" points="1100.06,309,1106.06,313,1112.06,309,1106.06,305,1100.06,309" style="stroke: #A80036; stroke-width: 1.0;"/><polygon fill="#A80036" points="1200.46,309,1191.46,305,1195.46,309,1191.46,313,1200.46,309" style="stroke: #A80036; stroke-width: 1.0;"/><line style="stroke: #A80036; stroke-width: 1.0;" x1="1195.46" x2="1187.46" y1="309" y2="309"/><path d="M990.5,171.019 C990.5,195.723 990.5,224.884 990.5,249.937 " fill="none" style="stroke: #A80036; stroke-width: 1.0;"/><polygon fill="#A80036" points="990.5,262.997,994.5,256.997,990.5,250.997,986.5,256.997,990.5,262.997" style="stroke: #A80036; stroke-width: 1.0;"/><path d="M984.641,355.133 C981.656,378.133 977.927,406.861 974.435,433.758 " fill="none" style="stroke: #A80036; stroke-width: 1.0;"/><polygon fill="#A80036" points="972.745,446.782,977.4845,441.3471,974.2905,434.8819,969.5511,440.3168,972.745,446.782" style="stroke: #A80036; stroke-width: 1.0;"/><path d="M1151.79,519 C1161.56,519 1171.33,519 1181.1,519 " fill="none" style="stroke: #A80036; stroke-width: 1.0;"/><polygon fill="#A80036" points="1194.42,519,1185.42,515,1189.42,519,1185.42,523,1194.42,519" style="stroke: #A80036; stroke-width: 1.0;"/><line style="stroke: #A80036; stroke-width: 1.0;" x1="1189.42" x2="1181.42" y1="519" y2="519"/><polygon fill="#A80036" points="1138.74,519,1144.74,523,1150.74,519,1144.74,515,1138.74,519" style="stroke: #A80036; stroke-width: 1.0;"/><path d="M1102.96,597.58 C1144.99,620.959 1188.6,645.217 1221.33,663.423 " fill="none" style="stroke: #A80036; stroke-width: 1.0;"/><polygon fill="#A80036" points="1232.87,669.8445,1226.9468,661.9758,1228.4997,667.4154,1223.0602,668.9682,1232.87,669.8445" style="stroke: #A80036; stroke-width: 1.0;"/><line style="stroke: #A80036; stroke-width: 1.0;" x1="1228.4997" x2="1221.51" y1="667.4154" y2="663.525"/><polygon fill="#A80036" points="1091.34,591.115,1094.641,597.5262,1101.8286,596.945,1098.5276,590.5338,1091.34,591.115" style="stroke: #A80036; stroke-width: 1.0;"/><path d="M58.1452,554.391 C66.7614,567.49 78.0805,581.528 91.5,591 C141.707,626.44 204.369,649.738 262.231,664.979 " fill="none" style="stroke: #A80036; stroke-width: 1.0;"/><polygon fill="#A80036" points="274.884,668.206,267.151,662.1067,270.039,666.9709,265.1748,669.8588,274.884,668.206" style="stroke: #A80036; stroke-width: 1.0;"/><line style="stroke: #A80036; stroke-width: 1.0;" x1="270.039" x2="262.287" y1="666.9709" y2="664.9931"/><polygon fill="#A80036" points="51.2843,543.261,51.0276,550.4675,57.581,553.4763,57.8377,546.2697,51.2843,543.261" style="stroke: #A80036; stroke-width: 1.0;"/><path d="M769.179,591.34 C696.927,615.296 633.62,634.655 578.672,650.953 " fill="none" style="stroke: #A80036; stroke-width: 1.0;"/><polygon fill="none" points="767.063,584.667,788.251,584.979,771.493,597.947,767.063,584.667" style="stroke: #A80036; stroke-width: 1.0;"/><path d="M296.557,556.266 C321.142,580.994 354.06,614.104 381.346,641.548 " fill="none" style="stroke: #A80036; stroke-width: 1.0;"/><polygon fill="#A80036" points="390.739,650.996,389.3451,643.9209,382.2781,642.4864,383.672,649.5615,390.739,650.996" style="stroke: #A80036; stroke-width: 1.0;"/><path d="M565.282,556.266 C541.268,580.994 509.116,614.104 482.465,641.548 " fill="none" style="stroke: #A80036; stroke-width: 1.0;"/><polygon fill="#A80036" points="473.29,650.996,480.3397,649.4786,481.6504,642.3877,474.6008,643.905,473.29,650.996" style="stroke: #A80036; stroke-width: 1.0;"/><path d="M371.089,401.826 C344.099,430.178 315.945,459.755 294.798,481.97 " fill="none" style="stroke: #A80036; stroke-width: 1.0;"/><polygon fill="none" points="366.194,396.816,385.053,387.156,376.334,406.468,366.194,396.816" style="stroke: #A80036; stroke-width: 1.0;"/><path d="M522.522,403.778 C541.469,431.531 561.085,460.265 575.903,481.97 " fill="none" style="stroke: #A80036; stroke-width: 1.0;"/><polygon fill="none" points="516.669,407.621,511.174,387.156,528.232,399.727,516.669,407.621" style="stroke: #A80036; stroke-width: 1.0;"/></g></svg>