<?xml version="1.0" encoding="UTF-8" standalone="no"?><svg xmlns="http://www.w3.org/2000/svg" xmlns:xlink="http://www.w3.org/1999/xlink" contentScriptType="application/ecmascript" contentStyleType="text/css" height="652px" preserveAspectRatio="none" style="width:991px;height:652px;" version="1.1" viewBox="0 0 991 652" width="991px" zoomAndPan="magnify"><defs><filter height="300%" id="f30a2jt" width="300%" x="-1" y="-1"><feGaussianBlur result="blurOut" stdDeviation="2.0"/><feColorMatrix in="blurOut" result="blurOut2" type="matrix" values="0 0 0 0 0 0 0 0 0 0 0 0 0 0 0 0 0 0 .4 0"/><feOffset dx="4.0" dy="4.0" in="blurOut2" result="blurOut3"/><feBlend in="SourceGraphic" in2="blurOut3" mode="normal"/></filter></defs><g><!--cluster MongoDB driver--><polygon fill="#AAAAAA" filter="url(#f30a2jt)" points="428,56,560,56,567,78.2969,984,78.2969,984,155,428,155,428,56" style="stroke: #000000; stroke-width: 2.0;"/><line style="stroke: #000000; stroke-width: 2.0;" x1="428" x2="567" y1="78.2969" y2="78.2969"/><text fill="#000000" font-family="sans-serif" font-size="14" font-weight="bold" lengthAdjust="spacingAndGlyphs" textLength="126" x="432" y="70.9951">MongoDB driver</text><!--cluster Metadata library --><polygon fill="#FFFFFF" filter="url(#f30a2jt)" points="22,24,160,24,167,46.2969,404,46.2969,404,645,22,645,22,24" style="stroke: #000000; stroke-width: 2.0;"/><line style="stroke: #000000; stroke-width: 2.0;" x1="22" x2="167" y1="46.2969" y2="46.2969"/><text fill="#000000" font-family="sans-serif" font-size="14" font-weight="bold" lengthAdjust="spacingAndGlyphs" textLength="127" x="26" y="38.9951">Metadata library</text><!--class MC--><rect fill="#FEFECE" filter="url(#f30a2jt)" height="48" style="stroke: #A80036; stroke-width: 1.5;" width="134" x="444" y="91"/><ellipse cx="459" cy="107" fill="#ADD1B2" rx="11" ry="11" style="stroke: #A80036; stroke-width: 1.0;"/><path d="M461.9688,112.6406 Q461.3906,112.9375 460.75,113.0859 Q460.1094,113.2344 459.4063,113.2344 Q456.9063,113.2344 455.5859,111.5859 Q454.2656,109.9375 454.2656,106.8125 Q454.2656,103.6875 455.5859,102.0313 Q456.9063,100.375 459.4063,100.375 Q460.1094,100.375 460.7578,100.5313 Q461.4063,100.6875 461.9688,100.9844 L461.9688,103.7031 Q461.3438,103.125 460.75,102.8516 Q460.1563,102.5781 459.5313,102.5781 Q458.1875,102.5781 457.5,103.6484 Q456.8125,104.7188 456.8125,106.8125 Q456.8125,108.9063 457.5,109.9766 Q458.1875,111.0469 459.5313,111.0469 Q460.1563,111.0469 460.75,110.7734 Q461.3438,110.5 461.9688,109.9219 L461.9688,112.6406 Z "/><text fill="#000000" font-family="sans-serif" font-size="12" lengthAdjust="spacingAndGlyphs" textLength="102" x="473" y="111.1543">MongoDB::Client</text><line style="stroke: #A80036; stroke-width: 1.5;" x1="445" x2="577" y1="123" y2="123"/><line style="stroke: #A80036; stroke-width: 1.5;" x1="445" x2="577" y1="131" y2="131"/><!--class MDB--><rect fill="#FEFECE" filter="url(#f30a2jt)" height="48" style="stroke: #A80036; stroke-width: 1.5;" width="160" x="613" y="91"/><ellipse cx="628" cy="107" fill="#ADD1B2" rx="11" ry="11" style="stroke: #A80036; stroke-width: 1.0;"/><path d="M630.9688,112.6406 Q630.3906,112.9375 629.75,113.0859 Q629.1094,113.2344 628.4063,113.2344 Q625.9063,113.2344 624.5859,111.5859 Q623.2656,109.9375 623.2656,106.8125 Q623.2656,103.6875 624.5859,102.0313 Q625.9063,100.375 628.4063,100.375 Q629.1094,100.375 629.7578,100.5313 Q630.4063,100.6875 630.9688,100.9844 L630.9688,103.7031 Q630.3438,103.125 629.75,102.8516 Q629.1563,102.5781 628.5313,102.5781 Q627.1875,102.5781 626.5,103.6484 Q625.8125,104.7188 625.8125,106.8125 Q625.8125,108.9063 626.5,109.9766 Q627.1875,111.0469 628.5313,111.0469 Q629.1563,111.0469 629.75,110.7734 Q630.3438,110.5 630.9688,109.9219 L630.9688,112.6406 Z "/><text fill="#000000" font-family="sans-serif" font-size="12" lengthAdjust="spacingAndGlyphs" textLength="128" x="642" y="111.1543">MongoDB::Database</text><line style="stroke: #A80036; stroke-width: 1.5;" x1="614" x2="772" y1="123" y2="123"/><line style="stroke: #A80036; stroke-width: 1.5;" x1="614" x2="772" y1="131" y2="131"/><!--class MCL--><rect fill="#FEFECE" filter="url(#f30a2jt)" height="48" style="stroke: #A80036; stroke-width: 1.5;" width="160" x="808" y="91"/><ellipse cx="823" cy="107" fill="#ADD1B2" rx="11" ry="11" style="stroke: #A80036; stroke-width: 1.0;"/><path d="M825.9688,112.6406 Q825.3906,112.9375 824.75,113.0859 Q824.1094,113.2344 823.4063,113.2344 Q820.9063,113.2344 819.5859,111.5859 Q818.2656,109.9375 818.2656,106.8125 Q818.2656,103.6875 819.5859,102.0313 Q820.9063,100.375 823.4063,100.375 Q824.1094,100.375 824.7578,100.5313 Q825.4063,100.6875 825.9688,100.9844 L825.9688,103.7031 Q825.3438,103.125 824.75,102.8516 Q824.1563,102.5781 823.5313,102.5781 Q822.1875,102.5781 821.5,103.6484 Q820.8125,104.7188 820.8125,106.8125 Q820.8125,108.9063 821.5,109.9766 Q822.1875,111.0469 823.5313,111.0469 Q824.1563,111.0469 824.75,110.7734 Q825.3438,110.5 825.9688,109.9219 L825.9688,112.6406 Z "/><text fill="#000000" font-family="sans-serif" font-size="12" lengthAdjust="spacingAndGlyphs" textLength="128" x="837" y="111.1543">MongoDB::Collection</text><line style="stroke: #A80036; stroke-width: 1.5;" x1="809" x2="967" y1="123" y2="123"/><line style="stroke: #A80036; stroke-width: 1.5;" x1="809" x2="967" y1="131" y2="131"/><!--class L--><rect fill="#FEFECE" filter="url(#f30a2jt)" height="92.3516" style="stroke: #A80036; stroke-width: 1.5;" width="219" x="130.5" y="231"/><ellipse cx="203.75" cy="249.9688" fill="#FF8800" rx="11" ry="11" style="stroke: #A80036; stroke-width: 1.0;"/><path d="M203.5469,245.6406 L203.5469,249.2656 L204.5469,249.2656 Q205.75,249.2656 206.2344,248.8594 Q206.7188,248.4531 206.7188,247.4531 Q206.7188,246.4531 206.2344,246.0469 Q205.75,245.6406 204.5469,245.6406 L203.5469,245.6406 Z M201.0938,243.5781 L204.4531,243.5781 Q207.0156,243.5781 208.1406,244.4922 Q209.2656,245.4063 209.2656,247.4531 Q209.2656,249.5 208.1406,250.4141 Q207.0156,251.3281 204.4531,251.3281 L203.5469,251.3281 L203.5469,255.9688 L201.0938,255.9688 L201.0938,243.5781 Z "/><text fill="#000000" font-family="sans-serif" font-size="12" font-style="italic" lengthAdjust="spacingAndGlyphs" textLength="68" x="222.25" y="247.1387">«package»</text><text fill="#000000" font-family="sans-serif" font-size="12" lengthAdjust="spacingAndGlyphs" textLength="41" x="235.75" y="261.1074">Library</text><line style="stroke: #A80036; stroke-width: 1.5;" x1="131.5" x2="348.5" y1="268.9375" y2="268.9375"/><text fill="#000000" font-family="sans-serif" font-size="11" lengthAdjust="spacingAndGlyphs" textLength="191" x="136.5" y="283.1479">our Library::Configuration $lib-cfg</text><text fill="#000000" font-family="sans-serif" font-size="11" lengthAdjust="spacingAndGlyphs" textLength="157" x="136.5" y="295.9526">our MongoDB::Client $client</text><line style="stroke: #A80036; stroke-width: 1.5;" x1="131.5" x2="348.5" y1="302.5469" y2="302.5469"/><text fill="#000000" font-family="sans-serif" font-size="11" lengthAdjust="spacingAndGlyphs" textLength="207" x="136.5" y="316.7573">initialize-library( Str :$library-config )</text><!--class LC--><rect fill="#FEFECE" filter="url(#f30a2jt)" height="112.0234" style="stroke: #A80036; stroke-width: 1.5;" width="239" x="120.5" y="59"/><ellipse cx="169.25" cy="75" fill="#ADD1B2" rx="11" ry="11" style="stroke: #A80036; stroke-width: 1.0;"/><path d="M172.2188,80.6406 Q171.6406,80.9375 171,81.0859 Q170.3594,81.2344 169.6563,81.2344 Q167.1563,81.2344 165.8359,79.5859 Q164.5156,77.9375 164.5156,74.8125 Q164.5156,71.6875 165.8359,70.0313 Q167.1563,68.375 169.6563,68.375 Q170.3594,68.375 171.0078,68.5313 Q171.6563,68.6875 172.2188,68.9844 L172.2188,71.7031 Q171.5938,71.125 171,70.8516 Q170.4063,70.5781 169.7813,70.5781 Q168.4375,70.5781 167.75,71.6484 Q167.0625,72.7188 167.0625,74.8125 Q167.0625,76.9063 167.75,77.9766 Q168.4375,79.0469 169.7813,79.0469 Q170.4063,79.0469 171,78.7734 Q171.5938,78.5 172.2188,77.9219 L172.2188,80.6406 Z "/><text fill="#000000" font-family="sans-serif" font-size="12" lengthAdjust="spacingAndGlyphs" textLength="133" x="189.75" y="79.1543">Library::Configuration</text><line style="stroke: #A80036; stroke-width: 1.5;" x1="121.5" x2="358.5" y1="91" y2="91"/><text fill="#000000" font-family="sans-serif" font-size="11" lengthAdjust="spacingAndGlyphs" textLength="143" x="126.5" y="105.2104">has Str $!config-filename</text><text fill="#000000" font-family="sans-serif" font-size="11" lengthAdjust="spacingAndGlyphs" textLength="103" x="126.5" y="118.0151">has Hash $.config</text><line style="stroke: #A80036; stroke-width: 1.5;" x1="121.5" x2="358.5" y1="124.6094" y2="124.6094"/><text fill="#000000" font-family="sans-serif" font-size="11" lengthAdjust="spacingAndGlyphs" textLength="227" x="126.5" y="138.8198">submethod BUILD ( Str :$library-config )</text><text fill="#000000" font-family="sans-serif" font-size="11" lengthAdjust="spacingAndGlyphs" textLength="90" x="126.5" y="151.6245">method save ( )</text><text fill="#000000" font-family="sans-serif" font-size="11" lengthAdjust="spacingAndGlyphs" textLength="136" x="126.5" y="164.4292">method !check-config ( )</text><!--class LD--><rect fill="#FEFECE" filter="url(#f30a2jt)" height="124.8281" style="stroke: #A80036; stroke-width: 1.5;" width="350" x="38" y="383"/><ellipse cx="153.75" cy="399" fill="#ADD1B2" rx="11" ry="11" style="stroke: #A80036; stroke-width: 1.0;"/><path d="M156.7188,404.6406 Q156.1406,404.9375 155.5,405.0859 Q154.8594,405.2344 154.1563,405.2344 Q151.6563,405.2344 150.3359,403.5859 Q149.0156,401.9375 149.0156,398.8125 Q149.0156,395.6875 150.3359,394.0313 Q151.6563,392.375 154.1563,392.375 Q154.8594,392.375 155.5078,392.5313 Q156.1563,392.6875 156.7188,392.9844 L156.7188,395.7031 Q156.0938,395.125 155.5,394.8516 Q154.9063,394.5781 154.2813,394.5781 Q152.9375,394.5781 152.25,395.6484 Q151.5625,396.7188 151.5625,398.8125 Q151.5625,400.9063 152.25,401.9766 Q152.9375,403.0469 154.2813,403.0469 Q154.9063,403.0469 155.5,402.7734 Q156.0938,402.5 156.7188,401.9219 L156.7188,404.6406 Z "/><text fill="#000000" font-family="sans-serif" font-size="12" lengthAdjust="spacingAndGlyphs" textLength="110" x="174.25" y="403.1543">Library::Database</text><line style="stroke: #A80036; stroke-width: 1.5;" x1="39" x2="387" y1="415" y2="415"/><text fill="#000000" font-family="sans-serif" font-size="11" lengthAdjust="spacingAndGlyphs" textLength="211" x="44" y="429.2104">has MongoDB::Database $!database;</text><text fill="#000000" font-family="sans-serif" font-size="11" lengthAdjust="spacingAndGlyphs" textLength="304" x="44" y="442.0151">has MongoDB::Collection $!collection handles &lt;find&gt;;</text><line style="stroke: #A80036; stroke-width: 1.5;" x1="39" x2="387" y1="448.6094" y2="448.6094"/><text fill="#000000" font-family="sans-serif" font-size="11" lengthAdjust="spacingAndGlyphs" textLength="338" x="44" y="462.8198">method init ( Str:D :$database-key!, Str:D :$collection-key! )</text><text fill="#000000" font-family="sans-serif" font-size="11" lengthAdjust="spacingAndGlyphs" textLength="327" x="44" y="475.6245">method insert ( Array $documents --&gt; BSON::Document )</text><text fill="#000000" font-family="sans-serif" font-size="11" lengthAdjust="spacingAndGlyphs" textLength="308" x="44" y="488.4292">method delete ( Array $deletes --&gt; BSON::Document )</text><text fill="#000000" font-family="sans-serif" font-size="11" lengthAdjust="spacingAndGlyphs" textLength="269" x="44" y="501.2339">method drop-database ( --&gt; BSON::Document )</text><!--class LMD--><rect fill="#FEFECE" filter="url(#f30a2jt)" height="60.8047" style="stroke: #A80036; stroke-width: 1.5;" width="210" x="108" y="568"/><ellipse cx="123" cy="584" fill="#ADD1B2" rx="11" ry="11" style="stroke: #A80036; stroke-width: 1.0;"/><path d="M125.9688,589.6406 Q125.3906,589.9375 124.75,590.0859 Q124.1094,590.2344 123.4063,590.2344 Q120.9063,590.2344 119.5859,588.5859 Q118.2656,586.9375 118.2656,583.8125 Q118.2656,580.6875 119.5859,579.0313 Q120.9063,577.375 123.4063,577.375 Q124.1094,577.375 124.7578,577.5313 Q125.4063,577.6875 125.9688,577.9844 L125.9688,580.7031 Q125.3438,580.125 124.75,579.8516 Q124.1563,579.5781 123.5313,579.5781 Q122.1875,579.5781 121.5,580.6484 Q120.8125,581.7188 120.8125,583.8125 Q120.8125,585.9063 121.5,586.9766 Q122.1875,588.0469 123.5313,588.0469 Q124.1563,588.0469 124.75,587.7734 Q125.3438,587.5 125.9688,586.9219 L125.9688,589.6406 Z "/><text fill="#000000" font-family="sans-serif" font-size="12" lengthAdjust="spacingAndGlyphs" textLength="178" x="137" y="588.1543">Library::Metadata::Database</text><line style="stroke: #A80036; stroke-width: 1.5;" x1="109" x2="317" y1="600" y2="600"/><line style="stroke: #A80036; stroke-width: 1.5;" x1="109" x2="317" y1="608" y2="608"/><text fill="#000000" font-family="sans-serif" font-size="11" lengthAdjust="spacingAndGlyphs" textLength="117" x="114" y="622.2104">submethod BUILD ( )</text><path d="M471.884,139.094 C434.363,161.247 376.398,195.47 327.811,224.156 " fill="none" style="stroke: #A80036; stroke-width: 1.0;"/><polygon fill="#FFFFFF" points="316.322,230.939,323.5223,231.3333,326.6556,224.8385,319.4553,224.4442,316.322,230.939" style="stroke: #A80036; stroke-width: 1.0;"/><path d="M240,171.063 C240,186.165 240,202.583 240,217.852 " fill="none" style="stroke: #A80036; stroke-width: 1.0;"/><polygon fill="#A80036" points="240,230.912,244,224.912,240,218.912,236,224.912,240,230.912" style="stroke: #A80036; stroke-width: 1.0;"/><path d="M232.693,323.057 C230.363,337.428 227.718,353.738 225.14,369.635 " fill="none" style="stroke: #A80036; stroke-width: 1.0;"/><polygon fill="#A80036" points="222.999,382.841,227.908,377.5588,224.9202,370.9958,220.0112,376.278,222.999,382.841" style="stroke: #A80036; stroke-width: 1.0;"/><path d="M659.247,139.099 C588.586,187.458 422.673,301.005 314.269,375.194 " fill="none" style="stroke: #A80036; stroke-width: 1.0;"/><polygon fill="#FFFFFF" points="303.31,382.694,310.5206,382.6061,313.2127,375.9164,306.0022,376.0043,303.31,382.694" style="stroke: #A80036; stroke-width: 1.0;"/><path d="M848.158,139.242 C830.733,149.238 809.976,160.917 791,171 C656.901,242.255 622.354,258.242 485,323 C446.633,341.089 404.931,360.058 365.97,377.487 " fill="none" style="stroke: #A80036; stroke-width: 1.0;"/><polygon fill="#FFFFFF" points="353.973,382.844,361.0826,384.0495,364.9299,377.9504,357.8202,376.7449,353.973,382.844" style="stroke: #A80036; stroke-width: 1.0;"/><path d="M213,528.783 C213,542.727 213,556.361 213,567.7602 " fill="none" style="stroke: #A80036; stroke-width: 1.0;"/><polygon fill="none" points="206,528.353,213,508.353,220,528.353,206,528.353" style="stroke: #A80036; stroke-width: 1.0;"/></g></svg>