<?xml version="1.0" encoding="UTF-8" standalone="no"?><svg xmlns="http://www.w3.org/2000/svg" xmlns:xlink="http://www.w3.org/1999/xlink" contentScriptType="application/ecmascript" contentStyleType="text/css" height="854px" preserveAspectRatio="none" style="width:1308px;height:854px;" version="1.1" viewBox="0 0 1308 854" width="1308px" zoomAndPan="magnify"><defs><filter height="300%" id="fy2zmvi" width="300%" x="-1" y="-1"><feGaussianBlur result="blurOut" stdDeviation="2.0"/><feColorMatrix in="blurOut" result="blurOut2" type="matrix" values="0 0 0 0 0 0 0 0 0 0 0 0 0 0 0 0 0 0 .4 0"/><feOffset dx="4.0" dy="4.0" in="blurOut2" result="blurOut3"/><feBlend in="SourceGraphic" in2="blurOut3" mode="normal"/></filter></defs><g><!--cluster MongoDB driver--><polygon fill="#AAAAAA" filter="url(#fy2zmvi)" points="22,250,154,250,161,272.2969,214,272.2969,214,734,22,734,22,250" style="stroke: #000000; stroke-width: 2.0;"/><line style="stroke: #000000; stroke-width: 2.0;" x1="22" x2="161" y1="272.2969" y2="272.2969"/><text fill="#000000" font-family="sans-serif" font-size="14" font-weight="bold" lengthAdjust="spacingAndGlyphs" textLength="126" x="26" y="264.9951">MongoDB driver</text><!--cluster Metadata library --><polygon fill="#FFFFFF" filter="url(#fy2zmvi)" points="238,24,376,24,383,46.2969,1301,46.2969,1301,753,238,753,238,24" style="stroke: #000000; stroke-width: 2.0;"/><line style="stroke: #000000; stroke-width: 2.0;" x1="238" x2="383" y1="46.2969" y2="46.2969"/><text fill="#000000" font-family="sans-serif" font-size="14" font-weight="bold" lengthAdjust="spacingAndGlyphs" textLength="127" x="242" y="38.9951">Metadata library</text><!--class MC--><rect fill="#FEFECE" filter="url(#fy2zmvi)" height="48" style="stroke: #A80036; stroke-width: 1.5;" width="134" x="57" y="285"/><ellipse cx="72" cy="301" fill="#ADD1B2" rx="11" ry="11" style="stroke: #A80036; stroke-width: 1.0;"/><path d="M74.9688,306.6406 Q74.3906,306.9375 73.75,307.0859 Q73.1094,307.2344 72.4063,307.2344 Q69.9063,307.2344 68.5859,305.5859 Q67.2656,303.9375 67.2656,300.8125 Q67.2656,297.6875 68.5859,296.0313 Q69.9063,294.375 72.4063,294.375 Q73.1094,294.375 73.7578,294.5313 Q74.4063,294.6875 74.9688,294.9844 L74.9688,297.7031 Q74.3438,297.125 73.75,296.8516 Q73.1563,296.5781 72.5313,296.5781 Q71.1875,296.5781 70.5,297.6484 Q69.8125,298.7188 69.8125,300.8125 Q69.8125,302.9063 70.5,303.9766 Q71.1875,305.0469 72.5313,305.0469 Q73.1563,305.0469 73.75,304.7734 Q74.3438,304.5 74.9688,303.9219 L74.9688,306.6406 Z "/><text fill="#000000" font-family="sans-serif" font-size="12" lengthAdjust="spacingAndGlyphs" textLength="102" x="86" y="305.1543">MongoDB::Client</text><line style="stroke: #A80036; stroke-width: 1.5;" x1="58" x2="190" y1="317" y2="317"/><line style="stroke: #A80036; stroke-width: 1.5;" x1="58" x2="190" y1="325" y2="325"/><!--class MDB--><rect fill="#FEFECE" filter="url(#fy2zmvi)" height="48" style="stroke: #A80036; stroke-width: 1.5;" width="160" x="38" y="495"/><ellipse cx="53" cy="511" fill="#ADD1B2" rx="11" ry="11" style="stroke: #A80036; stroke-width: 1.0;"/><path d="M55.9688,516.6406 Q55.3906,516.9375 54.75,517.0859 Q54.1094,517.2344 53.4063,517.2344 Q50.9063,517.2344 49.5859,515.5859 Q48.2656,513.9375 48.2656,510.8125 Q48.2656,507.6875 49.5859,506.0313 Q50.9063,504.375 53.4063,504.375 Q54.1094,504.375 54.7578,504.5313 Q55.4063,504.6875 55.9688,504.9844 L55.9688,507.7031 Q55.3438,507.125 54.75,506.8516 Q54.1563,506.5781 53.5313,506.5781 Q52.1875,506.5781 51.5,507.6484 Q50.8125,508.7188 50.8125,510.8125 Q50.8125,512.9063 51.5,513.9766 Q52.1875,515.0469 53.5313,515.0469 Q54.1563,515.0469 54.75,514.7734 Q55.3438,514.5 55.9688,513.9219 L55.9688,516.6406 Z "/><text fill="#000000" font-family="sans-serif" font-size="12" lengthAdjust="spacingAndGlyphs" textLength="128" x="67" y="515.1543">MongoDB::Database</text><line style="stroke: #A80036; stroke-width: 1.5;" x1="39" x2="197" y1="527" y2="527"/><line style="stroke: #A80036; stroke-width: 1.5;" x1="39" x2="197" y1="535" y2="535"/><!--class MCL--><rect fill="#FEFECE" filter="url(#fy2zmvi)" height="48" style="stroke: #A80036; stroke-width: 1.5;" width="160" x="38" y="670"/><ellipse cx="53" cy="686" fill="#ADD1B2" rx="11" ry="11" style="stroke: #A80036; stroke-width: 1.0;"/><path d="M55.9688,691.6406 Q55.3906,691.9375 54.75,692.0859 Q54.1094,692.2344 53.4063,692.2344 Q50.9063,692.2344 49.5859,690.5859 Q48.2656,688.9375 48.2656,685.8125 Q48.2656,682.6875 49.5859,681.0313 Q50.9063,679.375 53.4063,679.375 Q54.1094,679.375 54.7578,679.5313 Q55.4063,679.6875 55.9688,679.9844 L55.9688,682.7031 Q55.3438,682.125 54.75,681.8516 Q54.1563,681.5781 53.5313,681.5781 Q52.1875,681.5781 51.5,682.6484 Q50.8125,683.7188 50.8125,685.8125 Q50.8125,687.9063 51.5,688.9766 Q52.1875,690.0469 53.5313,690.0469 Q54.1563,690.0469 54.75,689.7734 Q55.3438,689.5 55.9688,688.9219 L55.9688,691.6406 Z "/><text fill="#000000" font-family="sans-serif" font-size="12" lengthAdjust="spacingAndGlyphs" textLength="128" x="67" y="690.1543">MongoDB::Collection</text><line style="stroke: #A80036; stroke-width: 1.5;" x1="39" x2="197" y1="702" y2="702"/><line style="stroke: #A80036; stroke-width: 1.5;" x1="39" x2="197" y1="710" y2="710"/><!--class L--><rect fill="#FEFECE" filter="url(#fy2zmvi)" height="92.3516" style="stroke: #A80036; stroke-width: 1.5;" width="219" x="292.5" y="263"/><ellipse cx="365.75" cy="281.9688" fill="#FF8800" rx="11" ry="11" style="stroke: #A80036; stroke-width: 1.0;"/><path d="M365.5469,277.6406 L365.5469,281.2656 L366.5469,281.2656 Q367.75,281.2656 368.2344,280.8594 Q368.7188,280.4531 368.7188,279.4531 Q368.7188,278.4531 368.2344,278.0469 Q367.75,277.6406 366.5469,277.6406 L365.5469,277.6406 Z M363.0938,275.5781 L366.4531,275.5781 Q369.0156,275.5781 370.1406,276.4922 Q371.2656,277.4063 371.2656,279.4531 Q371.2656,281.5 370.1406,282.4141 Q369.0156,283.3281 366.4531,283.3281 L365.5469,283.3281 L365.5469,287.9688 L363.0938,287.9688 L363.0938,275.5781 Z "/><text fill="#000000" font-family="sans-serif" font-size="12" font-style="italic" lengthAdjust="spacingAndGlyphs" textLength="68" x="384.25" y="279.1387">«package»</text><text fill="#000000" font-family="sans-serif" font-size="12" lengthAdjust="spacingAndGlyphs" textLength="41" x="397.75" y="293.1074">Library</text><line style="stroke: #A80036; stroke-width: 1.5;" x1="293.5" x2="510.5" y1="300.9375" y2="300.9375"/><text fill="#000000" font-family="sans-serif" font-size="11" lengthAdjust="spacingAndGlyphs" textLength="191" x="298.5" y="315.1479">our Library::Configuration $lib-cfg</text><text fill="#000000" font-family="sans-serif" font-size="11" lengthAdjust="spacingAndGlyphs" textLength="157" x="298.5" y="327.9526">our MongoDB::Client $client</text><line style="stroke: #A80036; stroke-width: 1.5;" x1="293.5" x2="510.5" y1="334.5469" y2="334.5469"/><text fill="#000000" font-family="sans-serif" font-size="11" lengthAdjust="spacingAndGlyphs" textLength="207" x="298.5" y="348.7573">initialize-library( Str :$library-config )</text><!--class LC--><rect fill="#FEFECE" filter="url(#fy2zmvi)" height="112.0234" style="stroke: #A80036; stroke-width: 1.5;" width="239" x="282.5" y="59"/><ellipse cx="331.25" cy="75" fill="#ADD1B2" rx="11" ry="11" style="stroke: #A80036; stroke-width: 1.0;"/><path d="M334.2188,80.6406 Q333.6406,80.9375 333,81.0859 Q332.3594,81.2344 331.6563,81.2344 Q329.1563,81.2344 327.8359,79.5859 Q326.5156,77.9375 326.5156,74.8125 Q326.5156,71.6875 327.8359,70.0313 Q329.1563,68.375 331.6563,68.375 Q332.3594,68.375 333.0078,68.5313 Q333.6563,68.6875 334.2188,68.9844 L334.2188,71.7031 Q333.5938,71.125 333,70.8516 Q332.4063,70.5781 331.7813,70.5781 Q330.4375,70.5781 329.75,71.6484 Q329.0625,72.7188 329.0625,74.8125 Q329.0625,76.9063 329.75,77.9766 Q330.4375,79.0469 331.7813,79.0469 Q332.4063,79.0469 333,78.7734 Q333.5938,78.5 334.2188,77.9219 L334.2188,80.6406 Z "/><text fill="#000000" font-family="sans-serif" font-size="12" lengthAdjust="spacingAndGlyphs" textLength="133" x="351.75" y="79.1543">Library::Configuration</text><line style="stroke: #A80036; stroke-width: 1.5;" x1="283.5" x2="520.5" y1="91" y2="91"/><text fill="#000000" font-family="sans-serif" font-size="11" lengthAdjust="spacingAndGlyphs" textLength="143" x="288.5" y="105.2104">has Str $!config-filename</text><text fill="#000000" font-family="sans-serif" font-size="11" lengthAdjust="spacingAndGlyphs" textLength="103" x="288.5" y="118.0151">has Hash $.config</text><line style="stroke: #A80036; stroke-width: 1.5;" x1="283.5" x2="520.5" y1="124.6094" y2="124.6094"/><text fill="#000000" font-family="sans-serif" font-size="11" lengthAdjust="spacingAndGlyphs" textLength="227" x="288.5" y="138.8198">submethod BUILD ( Str :$library-config )</text><text fill="#000000" font-family="sans-serif" font-size="11" lengthAdjust="spacingAndGlyphs" textLength="90" x="288.5" y="151.6245">method save ( )</text><text fill="#000000" font-family="sans-serif" font-size="11" lengthAdjust="spacingAndGlyphs" textLength="136" x="288.5" y="164.4292">method !check-config ( )</text><!--class LD--><rect fill="#FEFECE" filter="url(#fy2zmvi)" height="143.5703" style="stroke: #A80036; stroke-width: 1.5;" width="350" x="254" y="447"/><ellipse cx="369.75" cy="465.9688" fill="#FFFF00" rx="11" ry="11" style="stroke: #A80036; stroke-width: 1.0;"/><path d="M370.9531,466.1094 Q371.3125,466.1875 371.5859,466.4609 Q371.8594,466.7344 372.25,467.5156 L374.4844,471.9688 L371.7969,471.9688 L370.2969,468.8438 Q370.2344,468.7031 370.125,468.4688 Q369.4688,467.0781 368.5781,467.0781 L367.7969,467.0781 L367.7969,471.9688 L365.3594,471.9688 L365.3594,459.5781 L368.8906,459.5781 Q371.2813,459.5781 372.3203,460.4219 Q373.3594,461.2656 373.3594,463.1719 Q373.3594,464.4531 372.7422,465.2109 Q372.125,465.9688 370.9531,466.1094 Z M367.7969,461.6406 L367.7969,465.0156 L368.9531,465.0156 Q369.9688,465.0156 370.3984,464.6172 Q370.8281,464.2188 370.8281,463.3125 Q370.8281,462.4219 370.3984,462.0313 Q369.9688,461.6406 368.9531,461.6406 L367.7969,461.6406 Z "/><text fill="#000000" font-family="sans-serif" font-size="12" font-style="italic" lengthAdjust="spacingAndGlyphs" textLength="38" x="426.25" y="463.1387">«role»</text><text fill="#000000" font-family="sans-serif" font-size="12" lengthAdjust="spacingAndGlyphs" textLength="110" x="390.25" y="477.1074">Library::Database</text><line style="stroke: #A80036; stroke-width: 1.5;" x1="255" x2="603" y1="484.9375" y2="484.9375"/><text fill="#000000" font-family="sans-serif" font-size="11" lengthAdjust="spacingAndGlyphs" textLength="207" x="260" y="499.1479">has MongoDB::Database $!database</text><text fill="#000000" font-family="sans-serif" font-size="11" lengthAdjust="spacingAndGlyphs" textLength="300" x="260" y="511.9526">has MongoDB::Collection $!collection handles &lt;find&gt;</text><line style="stroke: #A80036; stroke-width: 1.5;" x1="255" x2="603" y1="518.5469" y2="518.5469"/><text fill="#000000" font-family="sans-serif" font-size="11" lengthAdjust="spacingAndGlyphs" textLength="338" x="260" y="532.7573">method init ( Str:D :$database-key!, Str:D :$collection-key! )</text><text fill="#000000" font-family="sans-serif" font-size="11" lengthAdjust="spacingAndGlyphs" textLength="327" x="260" y="545.562">method insert ( Array $documents --&gt; BSON::Document )</text><text fill="#000000" font-family="sans-serif" font-size="11" lengthAdjust="spacingAndGlyphs" textLength="308" x="260" y="558.3667">method delete ( Array $deletes --&gt; BSON::Document )</text><text fill="#000000" font-family="sans-serif" font-size="11" lengthAdjust="spacingAndGlyphs" textLength="284" x="260" y="571.1714">method count ( List $query --&gt; BSON::Document )</text><text fill="#000000" font-family="sans-serif" font-size="11" lengthAdjust="spacingAndGlyphs" textLength="269" x="260" y="583.9761">method drop-database ( --&gt; BSON::Document )</text><!--class LMD--><rect fill="#FEFECE" filter="url(#fy2zmvi)" height="86.4141" style="stroke: #A80036; stroke-width: 1.5;" width="315" x="634.5" y="651"/><ellipse cx="698.75" cy="667" fill="#ADD1B2" rx="11" ry="11" style="stroke: #A80036; stroke-width: 1.0;"/><path d="M701.7188,672.6406 Q701.1406,672.9375 700.5,673.0859 Q699.8594,673.2344 699.1563,673.2344 Q696.6563,673.2344 695.3359,671.5859 Q694.0156,669.9375 694.0156,666.8125 Q694.0156,663.6875 695.3359,662.0313 Q696.6563,660.375 699.1563,660.375 Q699.8594,660.375 700.5078,660.5313 Q701.1563,660.6875 701.7188,660.9844 L701.7188,663.7031 Q701.0938,663.125 700.5,662.8516 Q699.9063,662.5781 699.2813,662.5781 Q697.9375,662.5781 697.25,663.6484 Q696.5625,664.7188 696.5625,666.8125 Q696.5625,668.9063 697.25,669.9766 Q697.9375,671.0469 699.2813,671.0469 Q699.9063,671.0469 700.5,670.7734 Q701.0938,670.5 701.7188,669.9219 L701.7188,672.6406 Z "/><text fill="#000000" font-family="sans-serif" font-size="12" lengthAdjust="spacingAndGlyphs" textLength="178" x="719.25" y="671.1543">Library::Metadata::Database</text><line style="stroke: #A80036; stroke-width: 1.5;" x1="635.5" x2="948.5" y1="683" y2="683"/><text fill="#000000" font-family="sans-serif" font-size="11" lengthAdjust="spacingAndGlyphs" textLength="250" x="640.5" y="697.2104">has Library::MetaData::Object $!meta-object</text><line style="stroke: #A80036; stroke-width: 1.5;" x1="635.5" x2="948.5" y1="703.8047" y2="703.8047"/><text fill="#000000" font-family="sans-serif" font-size="11" lengthAdjust="spacingAndGlyphs" textLength="117" x="640.5" y="718.0151">submethod BUILD ( )</text><text fill="#000000" font-family="sans-serif" font-size="11" lengthAdjust="spacingAndGlyphs" textLength="303" x="640.5" y="730.8198">method update-meta( Str $object, ObjectType $type )</text><!--class Obj--><rect fill="#FEFECE" filter="url(#fy2zmvi)" height="156.375" style="stroke: #A80036; stroke-width: 1.5;" width="415" x="726.5" y="231"/><ellipse cx="851.25" cy="249.9688" fill="#FFFF00" rx="11" ry="11" style="stroke: #A80036; stroke-width: 1.0;"/><path d="M852.4531,250.1094 Q852.8125,250.1875 853.0859,250.4609 Q853.3594,250.7344 853.75,251.5156 L855.9844,255.9688 L853.2969,255.9688 L851.7969,252.8438 Q851.7344,252.7031 851.625,252.4688 Q850.9688,251.0781 850.0781,251.0781 L849.2969,251.0781 L849.2969,255.9688 L846.8594,255.9688 L846.8594,243.5781 L850.3906,243.5781 Q852.7813,243.5781 853.8203,244.4219 Q854.8594,245.2656 854.8594,247.1719 Q854.8594,248.4531 854.2422,249.2109 Q853.625,249.9688 852.4531,250.1094 Z M849.2969,245.6406 L849.2969,249.0156 L850.4531,249.0156 Q851.4688,249.0156 851.8984,248.6172 Q852.3281,248.2188 852.3281,247.3125 Q852.3281,246.4219 851.8984,246.0313 Q851.4688,245.6406 850.4531,245.6406 L849.2969,245.6406 Z "/><text fill="#000000" font-family="sans-serif" font-size="12" font-style="italic" lengthAdjust="spacingAndGlyphs" textLength="38" x="931.25" y="247.1387">«role»</text><text fill="#000000" font-family="sans-serif" font-size="12" lengthAdjust="spacingAndGlyphs" textLength="157" x="871.75" y="261.1074">Library::Metadata::Object</text><line style="stroke: #A80036; stroke-width: 1.5;" x1="727.5" x2="1140.5" y1="268.9375" y2="268.9375"/><text fill="#000000" font-family="sans-serif" font-size="11" lengthAdjust="spacingAndGlyphs" textLength="195" x="732.5" y="283.1479">has BSON::Document $!meta-data</text><text fill="#000000" font-family="sans-serif" font-size="11" lengthAdjust="spacingAndGlyphs" textLength="341" x="732.5" y="295.9526">has $!dbo where  .^name ~~ 'Library::Metadata::Database'</text><line style="stroke: #A80036; stroke-width: 1.5;" x1="727.5" x2="1140.5" y1="302.5469" y2="302.5469"/><text fill="#000000" font-family="sans-serif" font-size="11" lengthAdjust="spacingAndGlyphs" textLength="337" x="732.5" y="316.7573">submethod BUILD ( :$dbo, Str :$object, ObjectType :$type )</text><text fill="#000000" font-family="sans-serif" font-size="11" lengthAdjust="spacingAndGlyphs" textLength="215" x="732.5" y="329.562">method meta ( --&gt; BSON::Document )</text><text fill="#000000" font-family="sans-serif" font-size="11" lengthAdjust="spacingAndGlyphs" textLength="403" x="732.5" y="342.3667">method init-meta ( Str :$object, ObjectType :$type ) { ... }   # Abstract</text><text fill="#000000" font-family="sans-serif" font-size="11" lengthAdjust="spacingAndGlyphs" textLength="237" x="732.5" y="355.1714">method update-meta ( ) { ... } # Abstract</text><text fill="#000000" font-family="sans-serif" font-size="11" lengthAdjust="spacingAndGlyphs" textLength="175" x="732.5" y="367.9761">method !sha1 ( Str $s --&gt; Str )</text><text fill="#000000" font-family="sans-serif" font-size="11" lengthAdjust="spacingAndGlyphs" textLength="248" x="732.5" y="380.7808">method !sha1-content ( Str $object --&gt; Str )</text><!--class OTF--><rect fill="#FEFECE" filter="url(#fy2zmvi)" height="73.6094" style="stroke: #A80036; stroke-width: 1.5;" width="305" x="639.5" y="482"/><ellipse cx="694.75" cy="498" fill="#ADD1B2" rx="11" ry="11" style="stroke: #A80036; stroke-width: 1.0;"/><path d="M697.7188,503.6406 Q697.1406,503.9375 696.5,504.0859 Q695.8594,504.2344 695.1563,504.2344 Q692.6563,504.2344 691.3359,502.5859 Q690.0156,500.9375 690.0156,497.8125 Q690.0156,494.6875 691.3359,493.0313 Q692.6563,491.375 695.1563,491.375 Q695.8594,491.375 696.5078,491.5313 Q697.1563,491.6875 697.7188,491.9844 L697.7188,494.7031 Q697.0938,494.125 696.5,493.8516 Q695.9063,493.5781 695.2813,493.5781 Q693.9375,493.5781 693.25,494.6484 Q692.5625,495.7188 692.5625,497.8125 Q692.5625,499.9063 693.25,500.9766 Q693.9375,502.0469 695.2813,502.0469 Q695.9063,502.0469 696.5,501.7734 Q697.0938,501.5 697.7188,500.9219 L697.7188,503.6406 Z "/><text fill="#000000" font-family="sans-serif" font-size="12" lengthAdjust="spacingAndGlyphs" textLength="186" x="715.25" y="502.1543">Library::Metadata::Object::File</text><line style="stroke: #A80036; stroke-width: 1.5;" x1="640.5" x2="943.5" y1="514" y2="514"/><line style="stroke: #A80036; stroke-width: 1.5;" x1="640.5" x2="943.5" y1="522" y2="522"/><text fill="#000000" font-family="sans-serif" font-size="11" lengthAdjust="spacingAndGlyphs" textLength="293" x="645.5" y="536.2104">method init-meta ( Str :$object, ObjectType :$type )</text><text fill="#000000" font-family="sans-serif" font-size="11" lengthAdjust="spacingAndGlyphs" textLength="135" x="645.5" y="549.0151">method update-meta ( )</text><!--class OTD--><rect fill="#FEFECE" filter="url(#fy2zmvi)" height="73.6094" style="stroke: #A80036; stroke-width: 1.5;" width="305" x="979.5" y="482"/><ellipse cx="1017.9" cy="498" fill="#ADD1B2" rx="11" ry="11" style="stroke: #A80036; stroke-width: 1.0;"/><path d="M1020.8688,503.6406 Q1020.2906,503.9375 1019.65,504.0859 Q1019.0094,504.2344 1018.3063,504.2344 Q1015.8063,504.2344 1014.4859,502.5859 Q1013.1656,500.9375 1013.1656,497.8125 Q1013.1656,494.6875 1014.4859,493.0313 Q1015.8063,491.375 1018.3063,491.375 Q1019.0094,491.375 1019.6578,491.5313 Q1020.3063,491.6875 1020.8688,491.9844 L1020.8688,494.7031 Q1020.2438,494.125 1019.65,493.8516 Q1019.0563,493.5781 1018.4313,493.5781 Q1017.0875,493.5781 1016.4,494.6484 Q1015.7125,495.7188 1015.7125,497.8125 Q1015.7125,499.9063 1016.4,500.9766 Q1017.0875,502.0469 1018.4313,502.0469 Q1019.0563,502.0469 1019.65,501.7734 Q1020.2438,501.5 1020.8688,500.9219 L1020.8688,503.6406 Z "/><text fill="#000000" font-family="sans-serif" font-size="12" lengthAdjust="spacingAndGlyphs" textLength="221" x="1037.1" y="502.1543">Library::Metadata::Object::Directory</text><line style="stroke: #A80036; stroke-width: 1.5;" x1="980.5" x2="1283.5" y1="514" y2="514"/><line style="stroke: #A80036; stroke-width: 1.5;" x1="980.5" x2="1283.5" y1="522" y2="522"/><text fill="#000000" font-family="sans-serif" font-size="11" lengthAdjust="spacingAndGlyphs" textLength="293" x="985.5" y="536.2104">method init-meta ( Str :$object, ObjectType :$type )</text><text fill="#000000" font-family="sans-serif" font-size="11" lengthAdjust="spacingAndGlyphs" textLength="135" x="985.5" y="549.0151">method update-meta ( )</text><!--class Client--><rect fill="#FEFECE" filter="url(#fy2zmvi)" height="48" style="stroke: #A80036; stroke-width: 1.5;" width="67" x="758.5" y="797"/><ellipse cx="773.5" cy="813" fill="#ADD1B2" rx="11" ry="11" style="stroke: #A80036; stroke-width: 1.0;"/><path d="M776.4688,818.6406 Q775.8906,818.9375 775.25,819.0859 Q774.6094,819.2344 773.9063,819.2344 Q771.4063,819.2344 770.0859,817.5859 Q768.7656,815.9375 768.7656,812.8125 Q768.7656,809.6875 770.0859,808.0313 Q771.4063,806.375 773.9063,806.375 Q774.6094,806.375 775.2578,806.5313 Q775.9063,806.6875 776.4688,806.9844 L776.4688,809.7031 Q775.8438,809.125 775.25,808.8516 Q774.6563,808.5781 774.0313,808.5781 Q772.6875,808.5781 772,809.6484 Q771.3125,810.7188 771.3125,812.8125 Q771.3125,814.9063 772,815.9766 Q772.6875,817.0469 774.0313,817.0469 Q774.6563,817.0469 775.25,816.7734 Q775.8438,816.5 776.4688,815.9219 L776.4688,818.6406 Z "/><text fill="#000000" font-family="sans-serif" font-size="12" lengthAdjust="spacingAndGlyphs" textLength="35" x="787.5" y="817.1543">Client</text><line style="stroke: #A80036; stroke-width: 1.5;" x1="759.5" x2="824.5" y1="829" y2="829"/><line style="stroke: #A80036; stroke-width: 1.5;" x1="759.5" x2="824.5" y1="837" y2="837"/><path d="M204.122,309 C229.182,309 254.243,309 279.303,309 " fill="none" style="stroke: #A80036; stroke-width: 1.0;"/><polygon fill="#A80036" points="292.408,309,286.408,305,280.408,309,286.408,313,292.408,309" style="stroke: #A80036; stroke-width: 1.0;"/><polygon fill="#A80036" points="191.057,309,200.057,313,196.057,309,200.057,305,191.057,309" style="stroke: #A80036; stroke-width: 1.0;"/><line style="stroke: #A80036; stroke-width: 1.0;" x1="196.057" x2="204.057" y1="309" y2="309"/><path d="M402,171.019 C402,195.723 402,224.884 402,249.937 " fill="none" style="stroke: #A80036; stroke-width: 1.0;"/><polygon fill="#A80036" points="402,262.997,406,256.997,402,250.997,398,256.997,402,262.997" style="stroke: #A80036; stroke-width: 1.0;"/><path d="M407.859,355.133 C410.844,378.133 414.573,406.861 418.065,433.758 " fill="none" style="stroke: #A80036; stroke-width: 1.0;"/><polygon fill="#A80036" points="419.755,446.782,422.9489,440.3168,418.2095,434.8819,415.0155,441.3471,419.755,446.782" style="stroke: #A80036; stroke-width: 1.0;"/><path d="M240.499,519 C230.869,519 221.239,519 211.609,519 " fill="none" style="stroke: #A80036; stroke-width: 1.0;"/><polygon fill="#A80036" points="198.18,519,207.18,523,203.18,519,207.18,515,198.18,519" style="stroke: #A80036; stroke-width: 1.0;"/><line style="stroke: #A80036; stroke-width: 1.0;" x1="203.18" x2="211.18" y1="519" y2="519"/><polygon fill="#A80036" points="253.631,519,247.631,515,241.631,519,247.631,523,253.631,519" style="stroke: #A80036; stroke-width: 1.0;"/><path d="M289.536,597.58 C247.507,620.959 203.899,645.217 171.17,663.423 " fill="none" style="stroke: #A80036; stroke-width: 1.0;"/><polygon fill="#A80036" points="159.626,669.844,169.4355,668.964,163.9953,667.4132,165.5461,661.973,159.626,669.844" style="stroke: #A80036; stroke-width: 1.0;"/><line style="stroke: #A80036; stroke-width: 1.0;" x1="163.9953" x2="170.987" y1="667.4132" y2="663.525"/><polygon fill="#A80036" points="301.158,591.115,293.9702,590.5358,290.671,596.948,297.8588,597.5271,301.158,591.115" style="stroke: #A80036; stroke-width: 1.0;"/><path d="M792,750.6729 C792,761.8004 792,773.22 792,783.4982 " fill="none" style="stroke: #A80036; stroke-width: 1.0;"/><polygon fill="#A80036" points="792,796.6717,796,790.6717,792,784.6717,788,790.6717,792,796.6717" style="stroke: #A80036; stroke-width: 1.0;"/><polygon fill="#A80036" points="792,737.319,788,746.319,792,742.319,796,746.319,792,737.319" style="stroke: #A80036; stroke-width: 1.0;"/><line style="stroke: #A80036; stroke-width: 1.0;" x1="792" x2="792" y1="742.319" y2="750.3193"/><path d="M596.32,599.742 C633.381,617.405 671.236,635.446 703.652,650.895 " fill="none" style="stroke: #A80036; stroke-width: 1.0;"/><polygon fill="none" points="593.26,606.038,578.217,591.115,599.283,593.4,593.26,606.038" style="stroke: #A80036; stroke-width: 1.0;"/><path d="M792,569.56 C792,590.886 792,615.899 792,637.813 " fill="none" style="stroke: #A80036; stroke-width: 1.0;"/><polygon fill="#A80036" points="792,650.996,796,644.996,792,638.996,788,644.996,792,650.996" style="stroke: #A80036; stroke-width: 1.0;"/><polygon fill="#A80036" points="792,556.266,788,565.266,792,561.266,796,565.266,792,556.266" style="stroke: #A80036; stroke-width: 1.0;"/><line style="stroke: #A80036; stroke-width: 1.0;" x1="792" x2="792" y1="561.266" y2="569.2665"/><path d="M1049.39,562.033 C1000.208,587.059 937.621,618.905 886.479,644.927 " fill="none" style="stroke: #A80036; stroke-width: 1.0;"/><polygon fill="#A80036" points="874.748,650.896,881.9095,651.7401,885.4431,645.4541,878.2816,644.61,874.748,650.896" style="stroke: #A80036; stroke-width: 1.0;"/><polygon fill="#A80036" points="1061.14,556.056,1051.3048,556.5752,1056.6844,558.3247,1054.9348,563.7043,1061.14,556.056" style="stroke: #A80036; stroke-width: 1.0;"/><line style="stroke: #A80036; stroke-width: 1.0;" x1="1056.6844" x2="1049.555" y1="558.3247" y2="561.9515"/><path d="M869.978,403.778 C851.031,431.531 831.415,460.265 816.597,481.97 " fill="none" style="stroke: #A80036; stroke-width: 1.0;"/><polygon fill="none" points="864.268,399.727,881.326,387.156,875.831,407.621,864.268,399.727" style="stroke: #A80036; stroke-width: 1.0;"/><path d="M1021.41,401.826 C1048.4,430.178 1076.56,459.755 1097.7,481.97 " fill="none" style="stroke: #A80036; stroke-width: 1.0;"/><polygon fill="none" points="1016.17,406.468,1007.45,387.156,1026.31,396.816,1016.17,406.468" style="stroke: #A80036; stroke-width: 1.0;"/></g></svg>