<?xml version="1.0" encoding="UTF-8" standalone="no"?><svg xmlns="http://www.w3.org/2000/svg" xmlns:xlink="http://www.w3.org/1999/xlink" contentScriptType="application/ecmascript" contentStyleType="text/css" height="817px" preserveAspectRatio="none" style="width:1316px;height:817px;" version="1.1" viewBox="0 0 1316 817" width="1316px" zoomAndPan="magnify"><defs><filter height="300%" id="fwactf0" width="300%" x="-1" y="-1"><feGaussianBlur result="blurOut" stdDeviation="2.0"/><feColorMatrix in="blurOut" result="blurOut2" type="matrix" values="0 0 0 0 0 0 0 0 0 0 0 0 0 0 0 0 0 0 .4 0"/><feOffset dx="4.0" dy="4.0" in="blurOut2" result="blurOut3"/><feBlend in="SourceGraphic" in2="blurOut3" mode="normal"/></filter></defs><g><!--cluster MongoDB driver--><polygon fill="#AAAAAA" filter="url(#fwactf0)" points="22,24,154,24,161,46.2969,214,46.2969,214,431.5,22,431.5,22,24" style="stroke: #000000; stroke-width: 2.0;"/><line style="stroke: #000000; stroke-width: 2.0;" x1="22" x2="161" y1="46.2969" y2="46.2969"/><text fill="#000000" font-family="sans-serif" font-size="14" font-weight="bold" lengthAdjust="spacingAndGlyphs" textLength="126" x="26" y="38.9951">MongoDB driver</text><!--cluster Metadata library --><polygon fill="#FFFFFF" filter="url(#fwactf0)" points="238,132,376,132,383,154.2969,1309,154.2969,1309,810,238,810,238,132" style="stroke: #000000; stroke-width: 2.0;"/><line style="stroke: #000000; stroke-width: 2.0;" x1="238" x2="383" y1="154.2969" y2="154.2969"/><text fill="#000000" font-family="sans-serif" font-size="14" font-weight="bold" lengthAdjust="spacingAndGlyphs" textLength="127" x="242" y="146.9951">Metadata library</text><!--class MC--><rect fill="#FEFECE" filter="url(#fwactf0)" height="48" style="stroke: #A80036; stroke-width: 1.5;" width="134" x="57" y="59"/><ellipse cx="72" cy="75" fill="#ADD1B2" rx="11" ry="11" style="stroke: #A80036; stroke-width: 1.0;"/><path d="M74.9688,80.6406 Q74.3906,80.9375 73.75,81.0859 Q73.1094,81.2344 72.4063,81.2344 Q69.9063,81.2344 68.5859,79.5859 Q67.2656,77.9375 67.2656,74.8125 Q67.2656,71.6875 68.5859,70.0313 Q69.9063,68.375 72.4063,68.375 Q73.1094,68.375 73.7578,68.5313 Q74.4063,68.6875 74.9688,68.9844 L74.9688,71.7031 Q74.3438,71.125 73.75,70.8516 Q73.1563,70.5781 72.5313,70.5781 Q71.1875,70.5781 70.5,71.6484 Q69.8125,72.7188 69.8125,74.8125 Q69.8125,76.9063 70.5,77.9766 Q71.1875,79.0469 72.5313,79.0469 Q73.1563,79.0469 73.75,78.7734 Q74.3438,78.5 74.9688,77.9219 L74.9688,80.6406 Z "/><text fill="#000000" font-family="sans-serif" font-size="12" lengthAdjust="spacingAndGlyphs" textLength="102" x="86" y="79.1543">MongoDB::Client</text><line style="stroke: #A80036; stroke-width: 1.5;" x1="58" x2="190" y1="91" y2="91"/><line style="stroke: #A80036; stroke-width: 1.5;" x1="58" x2="190" y1="99" y2="99"/><!--class MDB--><rect fill="#FEFECE" filter="url(#fwactf0)" height="48" style="stroke: #A80036; stroke-width: 1.5;" width="160" x="38" y="199"/><ellipse cx="53" cy="215" fill="#ADD1B2" rx="11" ry="11" style="stroke: #A80036; stroke-width: 1.0;"/><path d="M55.9688,220.6406 Q55.3906,220.9375 54.75,221.0859 Q54.1094,221.2344 53.4063,221.2344 Q50.9063,221.2344 49.5859,219.5859 Q48.2656,217.9375 48.2656,214.8125 Q48.2656,211.6875 49.5859,210.0313 Q50.9063,208.375 53.4063,208.375 Q54.1094,208.375 54.7578,208.5313 Q55.4063,208.6875 55.9688,208.9844 L55.9688,211.7031 Q55.3438,211.125 54.75,210.8516 Q54.1563,210.5781 53.5313,210.5781 Q52.1875,210.5781 51.5,211.6484 Q50.8125,212.7188 50.8125,214.8125 Q50.8125,216.9063 51.5,217.9766 Q52.1875,219.0469 53.5313,219.0469 Q54.1563,219.0469 54.75,218.7734 Q55.3438,218.5 55.9688,217.9219 L55.9688,220.6406 Z "/><text fill="#000000" font-family="sans-serif" font-size="12" lengthAdjust="spacingAndGlyphs" textLength="128" x="67" y="219.1543">MongoDB::Database</text><line style="stroke: #A80036; stroke-width: 1.5;" x1="39" x2="197" y1="231" y2="231"/><line style="stroke: #A80036; stroke-width: 1.5;" x1="39" x2="197" y1="239" y2="239"/><!--class MCL--><rect fill="#FEFECE" filter="url(#fwactf0)" height="48" style="stroke: #A80036; stroke-width: 1.5;" width="160" x="38" y="367.5"/><ellipse cx="53" cy="383.5" fill="#ADD1B2" rx="11" ry="11" style="stroke: #A80036; stroke-width: 1.0;"/><path d="M55.9688,389.1406 Q55.3906,389.4375 54.75,389.5859 Q54.1094,389.7344 53.4063,389.7344 Q50.9063,389.7344 49.5859,388.0859 Q48.2656,386.4375 48.2656,383.3125 Q48.2656,380.1875 49.5859,378.5313 Q50.9063,376.875 53.4063,376.875 Q54.1094,376.875 54.7578,377.0313 Q55.4063,377.1875 55.9688,377.4844 L55.9688,380.2031 Q55.3438,379.625 54.75,379.3516 Q54.1563,379.0781 53.5313,379.0781 Q52.1875,379.0781 51.5,380.1484 Q50.8125,381.2188 50.8125,383.3125 Q50.8125,385.4063 51.5,386.4766 Q52.1875,387.5469 53.5313,387.5469 Q54.1563,387.5469 54.75,387.2734 Q55.3438,387 55.9688,386.4219 L55.9688,389.1406 Z "/><text fill="#000000" font-family="sans-serif" font-size="12" lengthAdjust="spacingAndGlyphs" textLength="128" x="67" y="387.6543">MongoDB::Collection</text><line style="stroke: #A80036; stroke-width: 1.5;" x1="39" x2="197" y1="399.5" y2="399.5"/><line style="stroke: #A80036; stroke-width: 1.5;" x1="39" x2="197" y1="407.5" y2="407.5"/><!--class L--><rect fill="#FEFECE" filter="url(#fwactf0)" height="92.3516" style="stroke: #A80036; stroke-width: 1.5;" width="219" x="317.5" y="345.5"/><ellipse cx="390.75" cy="364.4688" fill="#FF8800" rx="11" ry="11" style="stroke: #A80036; stroke-width: 1.0;"/><path d="M390.5469,360.1406 L390.5469,363.7656 L391.5469,363.7656 Q392.75,363.7656 393.2344,363.3594 Q393.7188,362.9531 393.7188,361.9531 Q393.7188,360.9531 393.2344,360.5469 Q392.75,360.1406 391.5469,360.1406 L390.5469,360.1406 Z M388.0938,358.0781 L391.4531,358.0781 Q394.0156,358.0781 395.1406,358.9922 Q396.2656,359.9063 396.2656,361.9531 Q396.2656,364 395.1406,364.9141 Q394.0156,365.8281 391.4531,365.8281 L390.5469,365.8281 L390.5469,370.4688 L388.0938,370.4688 L388.0938,358.0781 Z "/><text fill="#000000" font-family="sans-serif" font-size="12" font-style="italic" lengthAdjust="spacingAndGlyphs" textLength="68" x="409.25" y="361.6387">«package»</text><text fill="#000000" font-family="sans-serif" font-size="12" lengthAdjust="spacingAndGlyphs" textLength="41" x="422.75" y="375.6074">Library</text><line style="stroke: #A80036; stroke-width: 1.5;" x1="318.5" x2="535.5" y1="383.4375" y2="383.4375"/><text fill="#000000" font-family="sans-serif" font-size="11" lengthAdjust="spacingAndGlyphs" textLength="191" x="323.5" y="397.6479">our Library::Configuration $lib-cfg</text><text fill="#000000" font-family="sans-serif" font-size="11" lengthAdjust="spacingAndGlyphs" textLength="157" x="323.5" y="410.4526">our MongoDB::Client $client</text><line style="stroke: #A80036; stroke-width: 1.5;" x1="318.5" x2="535.5" y1="417.0469" y2="417.0469"/><text fill="#000000" font-family="sans-serif" font-size="11" lengthAdjust="spacingAndGlyphs" textLength="207" x="323.5" y="431.2573">initialize-library( Str :$library-config )</text><!--class LC--><rect fill="#FEFECE" filter="url(#fwactf0)" height="112.0234" style="stroke: #A80036; stroke-width: 1.5;" width="239" x="307.5" y="167"/><ellipse cx="356.25" cy="183" fill="#ADD1B2" rx="11" ry="11" style="stroke: #A80036; stroke-width: 1.0;"/><path d="M359.2188,188.6406 Q358.6406,188.9375 358,189.0859 Q357.3594,189.2344 356.6563,189.2344 Q354.1563,189.2344 352.8359,187.5859 Q351.5156,185.9375 351.5156,182.8125 Q351.5156,179.6875 352.8359,178.0313 Q354.1563,176.375 356.6563,176.375 Q357.3594,176.375 358.0078,176.5313 Q358.6563,176.6875 359.2188,176.9844 L359.2188,179.7031 Q358.5938,179.125 358,178.8516 Q357.4063,178.5781 356.7813,178.5781 Q355.4375,178.5781 354.75,179.6484 Q354.0625,180.7188 354.0625,182.8125 Q354.0625,184.9063 354.75,185.9766 Q355.4375,187.0469 356.7813,187.0469 Q357.4063,187.0469 358,186.7734 Q358.5938,186.5 359.2188,185.9219 L359.2188,188.6406 Z "/><text fill="#000000" font-family="sans-serif" font-size="12" lengthAdjust="spacingAndGlyphs" textLength="133" x="376.75" y="187.1543">Library::Configuration</text><line style="stroke: #A80036; stroke-width: 1.5;" x1="308.5" x2="545.5" y1="199" y2="199"/><text fill="#000000" font-family="sans-serif" font-size="11" lengthAdjust="spacingAndGlyphs" textLength="143" x="313.5" y="213.2104">has Str $!config-filename</text><text fill="#000000" font-family="sans-serif" font-size="11" lengthAdjust="spacingAndGlyphs" textLength="103" x="313.5" y="226.0151">has Hash $.config</text><line style="stroke: #A80036; stroke-width: 1.5;" x1="308.5" x2="545.5" y1="232.6094" y2="232.6094"/><text fill="#000000" font-family="sans-serif" font-size="11" lengthAdjust="spacingAndGlyphs" textLength="227" x="313.5" y="246.8198">submethod BUILD ( Str :$library-config )</text><text fill="#000000" font-family="sans-serif" font-size="11" lengthAdjust="spacingAndGlyphs" textLength="90" x="313.5" y="259.6245">method save ( )</text><text fill="#000000" font-family="sans-serif" font-size="11" lengthAdjust="spacingAndGlyphs" textLength="136" x="313.5" y="272.4292">method !check-config ( )</text><!--class LD--><rect fill="#FEFECE" filter="url(#fwactf0)" height="143.5703" style="stroke: #A80036; stroke-width: 1.5;" width="350" x="254" y="504"/><ellipse cx="369.75" cy="522.9688" fill="#FFFF00" rx="11" ry="11" style="stroke: #A80036; stroke-width: 1.0;"/><path d="M370.9531,523.1094 Q371.3125,523.1875 371.5859,523.4609 Q371.8594,523.7344 372.25,524.5156 L374.4844,528.9688 L371.7969,528.9688 L370.2969,525.8438 Q370.2344,525.7031 370.125,525.4688 Q369.4688,524.0781 368.5781,524.0781 L367.7969,524.0781 L367.7969,528.9688 L365.3594,528.9688 L365.3594,516.5781 L368.8906,516.5781 Q371.2813,516.5781 372.3203,517.4219 Q373.3594,518.2656 373.3594,520.1719 Q373.3594,521.4531 372.7422,522.2109 Q372.125,522.9688 370.9531,523.1094 Z M367.7969,518.6406 L367.7969,522.0156 L368.9531,522.0156 Q369.9688,522.0156 370.3984,521.6172 Q370.8281,521.2188 370.8281,520.3125 Q370.8281,519.4219 370.3984,519.0313 Q369.9688,518.6406 368.9531,518.6406 L367.7969,518.6406 Z "/><text fill="#000000" font-family="sans-serif" font-size="12" font-style="italic" lengthAdjust="spacingAndGlyphs" textLength="38" x="426.25" y="520.1387">«role»</text><text fill="#000000" font-family="sans-serif" font-size="12" lengthAdjust="spacingAndGlyphs" textLength="110" x="390.25" y="534.1074">Library::Database</text><line style="stroke: #A80036; stroke-width: 1.5;" x1="255" x2="603" y1="541.9375" y2="541.9375"/><text fill="#000000" font-family="sans-serif" font-size="11" lengthAdjust="spacingAndGlyphs" textLength="207" x="260" y="556.1479">has MongoDB::Database $!database</text><text fill="#000000" font-family="sans-serif" font-size="11" lengthAdjust="spacingAndGlyphs" textLength="300" x="260" y="568.9526">has MongoDB::Collection $!collection handles &lt;find&gt;</text><line style="stroke: #A80036; stroke-width: 1.5;" x1="255" x2="603" y1="575.5469" y2="575.5469"/><text fill="#000000" font-family="sans-serif" font-size="11" lengthAdjust="spacingAndGlyphs" textLength="338" x="260" y="589.7573">method init ( Str:D :$database-key!, Str:D :$collection-key! )</text><text fill="#000000" font-family="sans-serif" font-size="11" lengthAdjust="spacingAndGlyphs" textLength="327" x="260" y="602.562">method insert ( Array $documents --&gt; BSON::Document )</text><text fill="#000000" font-family="sans-serif" font-size="11" lengthAdjust="spacingAndGlyphs" textLength="308" x="260" y="615.3667">method delete ( Array $deletes --&gt; BSON::Document )</text><text fill="#000000" font-family="sans-serif" font-size="11" lengthAdjust="spacingAndGlyphs" textLength="284" x="260" y="628.1714">method count ( List $query --&gt; BSON::Document )</text><text fill="#000000" font-family="sans-serif" font-size="11" lengthAdjust="spacingAndGlyphs" textLength="269" x="260" y="640.9761">method drop-database ( --&gt; BSON::Document )</text><!--class LMD--><rect fill="#FEFECE" filter="url(#fwactf0)" height="86.4141" style="stroke: #A80036; stroke-width: 1.5;" width="315" x="636.5" y="708"/><ellipse cx="700.75" cy="724" fill="#ADD1B2" rx="11" ry="11" style="stroke: #A80036; stroke-width: 1.0;"/><path d="M703.7188,729.6406 Q703.1406,729.9375 702.5,730.0859 Q701.8594,730.2344 701.1563,730.2344 Q698.6563,730.2344 697.3359,728.5859 Q696.0156,726.9375 696.0156,723.8125 Q696.0156,720.6875 697.3359,719.0313 Q698.6563,717.375 701.1563,717.375 Q701.8594,717.375 702.5078,717.5313 Q703.1563,717.6875 703.7188,717.9844 L703.7188,720.7031 Q703.0938,720.125 702.5,719.8516 Q701.9063,719.5781 701.2813,719.5781 Q699.9375,719.5781 699.25,720.6484 Q698.5625,721.7188 698.5625,723.8125 Q698.5625,725.9063 699.25,726.9766 Q699.9375,728.0469 701.2813,728.0469 Q701.9063,728.0469 702.5,727.7734 Q703.0938,727.5 703.7188,726.9219 L703.7188,729.6406 Z "/><text fill="#000000" font-family="sans-serif" font-size="12" lengthAdjust="spacingAndGlyphs" textLength="178" x="721.25" y="728.1543">Library::Metadata::Database</text><line style="stroke: #A80036; stroke-width: 1.5;" x1="637.5" x2="950.5" y1="740" y2="740"/><text fill="#000000" font-family="sans-serif" font-size="11" lengthAdjust="spacingAndGlyphs" textLength="250" x="642.5" y="754.2104">has Library::MetaData::Object $!meta-object</text><line style="stroke: #A80036; stroke-width: 1.5;" x1="637.5" x2="950.5" y1="760.8047" y2="760.8047"/><text fill="#000000" font-family="sans-serif" font-size="11" lengthAdjust="spacingAndGlyphs" textLength="117" x="642.5" y="775.0151">submethod BUILD ( )</text><text fill="#000000" font-family="sans-serif" font-size="11" lengthAdjust="spacingAndGlyphs" textLength="303" x="642.5" y="787.8198">method update-meta( Str $object, ObjectType $type )</text><!--class Obj--><rect fill="#FEFECE" filter="url(#fwactf0)" height="105.1563" style="stroke: #A80036; stroke-width: 1.5;" width="260" x="836" y="339"/><ellipse cx="883.25" cy="357.9688" fill="#FFFF00" rx="11" ry="11" style="stroke: #A80036; stroke-width: 1.0;"/><path d="M884.4531,358.1094 Q884.8125,358.1875 885.0859,358.4609 Q885.3594,358.7344 885.75,359.5156 L887.9844,363.9688 L885.2969,363.9688 L883.7969,360.8438 Q883.7344,360.7031 883.625,360.4688 Q882.9688,359.0781 882.0781,359.0781 L881.2969,359.0781 L881.2969,363.9688 L878.8594,363.9688 L878.8594,351.5781 L882.3906,351.5781 Q884.7813,351.5781 885.8203,352.4219 Q886.8594,353.2656 886.8594,355.1719 Q886.8594,356.4531 886.2422,357.2109 Q885.625,357.9688 884.4531,358.1094 Z M881.2969,353.6406 L881.2969,357.0156 L882.4531,357.0156 Q883.4688,357.0156 883.8984,356.6172 Q884.3281,356.2188 884.3281,355.3125 Q884.3281,354.4219 883.8984,354.0313 Q883.4688,353.6406 882.4531,353.6406 L881.2969,353.6406 Z "/><text fill="#000000" font-family="sans-serif" font-size="12" font-style="italic" lengthAdjust="spacingAndGlyphs" textLength="38" x="963.25" y="355.1387">«role»</text><text fill="#000000" font-family="sans-serif" font-size="12" lengthAdjust="spacingAndGlyphs" textLength="157" x="903.75" y="369.1074">Library::Metadata::Object</text><line style="stroke: #A80036; stroke-width: 1.5;" x1="837" x2="1095" y1="376.9375" y2="376.9375"/><text fill="#000000" font-family="sans-serif" font-size="11" lengthAdjust="spacingAndGlyphs" textLength="195" x="842" y="391.1479">has BSON::Document $!meta-data</text><line style="stroke: #A80036; stroke-width: 1.5;" x1="837" x2="1095" y1="397.7422" y2="397.7422"/><text fill="#000000" font-family="sans-serif" font-size="11" lengthAdjust="spacingAndGlyphs" textLength="92" x="842" y="411.9526">method meta ( )</text><text fill="#000000" font-family="sans-serif" font-size="11" lengthAdjust="spacingAndGlyphs" textLength="175" x="842" y="424.7573">method !sha1 ( Str $s --&gt; Str )</text><text fill="#000000" font-family="sans-serif" font-size="11" lengthAdjust="spacingAndGlyphs" textLength="248" x="842" y="437.562">method !sha1-content ( Str $object --&gt; Str )</text><!--class OTF--><rect fill="#FEFECE" filter="url(#fwactf0)" height="60.8047" style="stroke: #A80036; stroke-width: 1.5;" width="309" x="983.5" y="545.5"/><ellipse cx="1040.75" cy="561.5" fill="#ADD1B2" rx="11" ry="11" style="stroke: #A80036; stroke-width: 1.0;"/><path d="M1043.7188,567.1406 Q1043.1406,567.4375 1042.5,567.5859 Q1041.8594,567.7344 1041.1563,567.7344 Q1038.6563,567.7344 1037.3359,566.0859 Q1036.0156,564.4375 1036.0156,561.3125 Q1036.0156,558.1875 1037.3359,556.5313 Q1038.6563,554.875 1041.1563,554.875 Q1041.8594,554.875 1042.5078,555.0313 Q1043.1563,555.1875 1043.7188,555.4844 L1043.7188,558.2031 Q1043.0938,557.625 1042.5,557.3516 Q1041.9063,557.0781 1041.2813,557.0781 Q1039.9375,557.0781 1039.25,558.1484 Q1038.5625,559.2188 1038.5625,561.3125 Q1038.5625,563.4063 1039.25,564.4766 Q1039.9375,565.5469 1041.2813,565.5469 Q1041.9063,565.5469 1042.5,565.2734 Q1043.0938,565 1043.7188,564.4219 L1043.7188,567.1406 Z "/><text fill="#000000" font-family="sans-serif" font-size="12" lengthAdjust="spacingAndGlyphs" textLength="186" x="1061.25" y="565.6543">Library::Metadata::Object::File</text><line style="stroke: #A80036; stroke-width: 1.5;" x1="984.5" x2="1291.5" y1="577.5" y2="577.5"/><line style="stroke: #A80036; stroke-width: 1.5;" x1="984.5" x2="1291.5" y1="585.5" y2="585.5"/><text fill="#000000" font-family="sans-serif" font-size="11" lengthAdjust="spacingAndGlyphs" textLength="297" x="989.5" y="599.7104">submethod BUILD ( Str :$object, ObjectType :$type )</text><!--class OTD--><rect fill="#FEFECE" filter="url(#fwactf0)" height="60.8047" style="stroke: #A80036; stroke-width: 1.5;" width="309" x="639.5" y="545.5"/><ellipse cx="679.7" cy="561.5" fill="#ADD1B2" rx="11" ry="11" style="stroke: #A80036; stroke-width: 1.0;"/><path d="M682.6688,567.1406 Q682.0906,567.4375 681.45,567.5859 Q680.8094,567.7344 680.1063,567.7344 Q677.6063,567.7344 676.2859,566.0859 Q674.9656,564.4375 674.9656,561.3125 Q674.9656,558.1875 676.2859,556.5313 Q677.6063,554.875 680.1063,554.875 Q680.8094,554.875 681.4578,555.0313 Q682.1063,555.1875 682.6688,555.4844 L682.6688,558.2031 Q682.0438,557.625 681.45,557.3516 Q680.8563,557.0781 680.2313,557.0781 Q678.8875,557.0781 678.2,558.1484 Q677.5125,559.2188 677.5125,561.3125 Q677.5125,563.4063 678.2,564.4766 Q678.8875,565.5469 680.2313,565.5469 Q680.8563,565.5469 681.45,565.2734 Q682.0438,565 682.6688,564.4219 L682.6688,567.1406 Z "/><text fill="#000000" font-family="sans-serif" font-size="12" lengthAdjust="spacingAndGlyphs" textLength="221" x="699.3" y="565.6543">Library::Metadata::Object::Directory</text><line style="stroke: #A80036; stroke-width: 1.5;" x1="640.5" x2="947.5" y1="577.5" y2="577.5"/><line style="stroke: #A80036; stroke-width: 1.5;" x1="640.5" x2="947.5" y1="585.5" y2="585.5"/><text fill="#000000" font-family="sans-serif" font-size="11" lengthAdjust="spacingAndGlyphs" textLength="297" x="645.5" y="599.7104">submethod BUILD ( Str :$object, ObjectType :$type )</text><path d="M191.102,106.813 C199.775,111.605 208.043,117.292 215,124 C270.094,177.117 242.527,218.974 290,279 C306.92,300.394 328.621,320.382 349.738,337.357 " fill="none" style="stroke: #A80036; stroke-width: 1.0;"/><polygon fill="#A80036" points="360.034,345.442,357.7854,338.5904,350.596,338.0309,352.8446,344.8824,360.034,345.442" style="stroke: #A80036; stroke-width: 1.0;"/><path d="M427,279.442 C427,296.395 427,315.087 427,332.223 " fill="none" style="stroke: #A80036; stroke-width: 1.0;"/><polygon fill="#A80036" points="427,345.268,431,339.268,427,333.268,423,339.268,427,345.268" style="stroke: #A80036; stroke-width: 1.0;"/><path d="M427.494,437.612 C427.67,453.666 427.875,472.304 428.075,490.576 " fill="none" style="stroke: #A80036; stroke-width: 1.0;"/><polygon fill="#A80036" points="428.219,503.773,432.1528,497.7294,428.0871,491.7737,424.1533,497.8173,428.219,503.773" style="stroke: #A80036; stroke-width: 1.0;"/><path d="M137.831,247.231 C157.534,270.378 188.546,306.987 215,339 C253.247,385.283 260,399.223 300,444 C314.843,460.615 331.182,477.909 347.098,494.276 " fill="none" style="stroke: #A80036; stroke-width: 1.0;"/><polygon fill="#A80036" points="356.405,503.793,355.07,496.7066,348.0152,495.2133,349.3502,502.2998,356.405,503.793" style="stroke: #A80036; stroke-width: 1.0;"/><path d="M157.388,415.614 C192.566,436.257 246.163,467.708 296.478,497.234 " fill="none" style="stroke: #A80036; stroke-width: 1.0;"/><polygon fill="#A80036" points="307.829,503.895,304.6784,497.4086,297.4792,497.822,300.6298,504.3084,307.829,503.895" style="stroke: #A80036; stroke-width: 1.0;"/><path d="M597.242,656.742 C634.507,674.405 672.57,692.446 705.165,707.895 " fill="none" style="stroke: #A80036; stroke-width: 1.0;"/><polygon fill="none" points="594.114,663.006,579.04,648.115,600.11,650.355,594.114,663.006" style="stroke: #A80036; stroke-width: 1.0;"/><path d="M1079.26,606.543 C1027.26,632.69 950.418,671.336 889.582,701.931 " fill="none" style="stroke: #A80036; stroke-width: 1.0;"/><polygon fill="#A80036" points="877.641,707.936,884.7985,708.8135,888.3614,702.5441,881.2039,701.6666,877.641,707.936" style="stroke: #A80036; stroke-width: 1.0;"/><path d="M794,606.74 C794,630.759 794,665.232 794,694.343 " fill="none" style="stroke: #A80036; stroke-width: 1.0;"/><polygon fill="#A80036" points="794,707.707,798,701.707,794,695.707,790,701.707,794,707.707" style="stroke: #A80036; stroke-width: 1.0;"/><path d="M1028.61,458.93 C1056.52,488.547 1087.99,521.94 1109.99,545.278 " fill="none" style="stroke: #A80036; stroke-width: 1.0;"/><polygon fill="none" points="1023.45,463.665,1014.83,444.309,1033.64,454.063,1023.45,463.665" style="stroke: #A80036; stroke-width: 1.0;"/><path d="M903.392,458.93 C875.479,488.547 844.008,521.94 822.012,545.278 " fill="none" style="stroke: #A80036; stroke-width: 1.0;"/><polygon fill="none" points="898.36,454.063,917.172,444.309,908.549,463.665,898.36,454.063" style="stroke: #A80036; stroke-width: 1.0;"/></g></svg>