<?xml version="1.0" encoding="UTF-8" standalone="no"?><svg xmlns="http://www.w3.org/2000/svg" xmlns:xlink="http://www.w3.org/1999/xlink" contentScriptType="application/ecmascript" contentStyleType="text/css" height="856px" preserveAspectRatio="none" style="width:1349px;height:856px;" version="1.1" viewBox="0 0 1349 856" width="1349px" zoomAndPan="magnify"><defs><filter height="300%" id="f2e42k4" width="300%" x="-1" y="-1"><feGaussianBlur result="blurOut" stdDeviation="2.0"/><feColorMatrix in="blurOut" result="blurOut2" type="matrix" values="0 0 0 0 0 0 0 0 0 0 0 0 0 0 0 0 0 0 .4 0"/><feOffset dx="4.0" dy="4.0" in="blurOut2" result="blurOut3"/><feBlend in="SourceGraphic" in2="blurOut3" mode="normal"/></filter></defs><g><!--cluster MongoDB driver--><polygon fill="#AAAAAA" filter="url(#f2e42k4)" points="22,24,154,24,161,46.2969,214,46.2969,214,451,22,451,22,24" style="stroke: #000000; stroke-width: 2.0;"/><line style="stroke: #000000; stroke-width: 2.0;" x1="22" x2="161" y1="46.2969" y2="46.2969"/><text fill="#000000" font-family="sans-serif" font-size="14" font-weight="bold" lengthAdjust="spacingAndGlyphs" textLength="126" x="26" y="38.9951">MongoDB driver</text><!--cluster Metadata library --><polygon fill="#FFFFFF" filter="url(#f2e42k4)" points="238,132,376,132,383,154.2969,1342,154.2969,1342,849,238,849,238,132" style="stroke: #000000; stroke-width: 2.0;"/><line style="stroke: #000000; stroke-width: 2.0;" x1="238" x2="383" y1="154.2969" y2="154.2969"/><text fill="#000000" font-family="sans-serif" font-size="14" font-weight="bold" lengthAdjust="spacingAndGlyphs" textLength="127" x="242" y="146.9951">Metadata library</text><!--class MC--><rect fill="#FEFECE" filter="url(#f2e42k4)" height="48" style="stroke: #A80036; stroke-width: 1.5;" width="134" x="57" y="59"/><ellipse cx="72" cy="75" fill="#ADD1B2" rx="11" ry="11" style="stroke: #A80036; stroke-width: 1.0;"/><path d="M74.9688,80.6406 Q74.3906,80.9375 73.75,81.0859 Q73.1094,81.2344 72.4063,81.2344 Q69.9063,81.2344 68.5859,79.5859 Q67.2656,77.9375 67.2656,74.8125 Q67.2656,71.6875 68.5859,70.0313 Q69.9063,68.375 72.4063,68.375 Q73.1094,68.375 73.7578,68.5313 Q74.4063,68.6875 74.9688,68.9844 L74.9688,71.7031 Q74.3438,71.125 73.75,70.8516 Q73.1563,70.5781 72.5313,70.5781 Q71.1875,70.5781 70.5,71.6484 Q69.8125,72.7188 69.8125,74.8125 Q69.8125,76.9063 70.5,77.9766 Q71.1875,79.0469 72.5313,79.0469 Q73.1563,79.0469 73.75,78.7734 Q74.3438,78.5 74.9688,77.9219 L74.9688,80.6406 Z "/><text fill="#000000" font-family="sans-serif" font-size="12" lengthAdjust="spacingAndGlyphs" textLength="102" x="86" y="79.1543">MongoDB::Client</text><line style="stroke: #A80036; stroke-width: 1.5;" x1="58" x2="190" y1="91" y2="91"/><line style="stroke: #A80036; stroke-width: 1.5;" x1="58" x2="190" y1="99" y2="99"/><!--class MDB--><rect fill="#FEFECE" filter="url(#f2e42k4)" height="48" style="stroke: #A80036; stroke-width: 1.5;" width="160" x="38" y="199"/><ellipse cx="53" cy="215" fill="#ADD1B2" rx="11" ry="11" style="stroke: #A80036; stroke-width: 1.0;"/><path d="M55.9688,220.6406 Q55.3906,220.9375 54.75,221.0859 Q54.1094,221.2344 53.4063,221.2344 Q50.9063,221.2344 49.5859,219.5859 Q48.2656,217.9375 48.2656,214.8125 Q48.2656,211.6875 49.5859,210.0313 Q50.9063,208.375 53.4063,208.375 Q54.1094,208.375 54.7578,208.5313 Q55.4063,208.6875 55.9688,208.9844 L55.9688,211.7031 Q55.3438,211.125 54.75,210.8516 Q54.1563,210.5781 53.5313,210.5781 Q52.1875,210.5781 51.5,211.6484 Q50.8125,212.7188 50.8125,214.8125 Q50.8125,216.9063 51.5,217.9766 Q52.1875,219.0469 53.5313,219.0469 Q54.1563,219.0469 54.75,218.7734 Q55.3438,218.5 55.9688,217.9219 L55.9688,220.6406 Z "/><text fill="#000000" font-family="sans-serif" font-size="12" lengthAdjust="spacingAndGlyphs" textLength="128" x="67" y="219.1543">MongoDB::Database</text><line style="stroke: #A80036; stroke-width: 1.5;" x1="39" x2="197" y1="231" y2="231"/><line style="stroke: #A80036; stroke-width: 1.5;" x1="39" x2="197" y1="239" y2="239"/><!--class MCL--><rect fill="#FEFECE" filter="url(#f2e42k4)" height="48" style="stroke: #A80036; stroke-width: 1.5;" width="160" x="38" y="387"/><ellipse cx="53" cy="403" fill="#ADD1B2" rx="11" ry="11" style="stroke: #A80036; stroke-width: 1.0;"/><path d="M55.9688,408.6406 Q55.3906,408.9375 54.75,409.0859 Q54.1094,409.2344 53.4063,409.2344 Q50.9063,409.2344 49.5859,407.5859 Q48.2656,405.9375 48.2656,402.8125 Q48.2656,399.6875 49.5859,398.0313 Q50.9063,396.375 53.4063,396.375 Q54.1094,396.375 54.7578,396.5313 Q55.4063,396.6875 55.9688,396.9844 L55.9688,399.7031 Q55.3438,399.125 54.75,398.8516 Q54.1563,398.5781 53.5313,398.5781 Q52.1875,398.5781 51.5,399.6484 Q50.8125,400.7188 50.8125,402.8125 Q50.8125,404.9063 51.5,405.9766 Q52.1875,407.0469 53.5313,407.0469 Q54.1563,407.0469 54.75,406.7734 Q55.3438,406.5 55.9688,405.9219 L55.9688,408.6406 Z "/><text fill="#000000" font-family="sans-serif" font-size="12" lengthAdjust="spacingAndGlyphs" textLength="128" x="67" y="407.1543">MongoDB::Collection</text><line style="stroke: #A80036; stroke-width: 1.5;" x1="39" x2="197" y1="419" y2="419"/><line style="stroke: #A80036; stroke-width: 1.5;" x1="39" x2="197" y1="427" y2="427"/><!--class L--><rect fill="#FEFECE" filter="url(#f2e42k4)" height="92.3516" style="stroke: #A80036; stroke-width: 1.5;" width="219" x="317.5" y="365"/><ellipse cx="390.75" cy="383.9688" fill="#FF8800" rx="11" ry="11" style="stroke: #A80036; stroke-width: 1.0;"/><path d="M390.5469,379.6406 L390.5469,383.2656 L391.5469,383.2656 Q392.75,383.2656 393.2344,382.8594 Q393.7188,382.4531 393.7188,381.4531 Q393.7188,380.4531 393.2344,380.0469 Q392.75,379.6406 391.5469,379.6406 L390.5469,379.6406 Z M388.0938,377.5781 L391.4531,377.5781 Q394.0156,377.5781 395.1406,378.4922 Q396.2656,379.4063 396.2656,381.4531 Q396.2656,383.5 395.1406,384.4141 Q394.0156,385.3281 391.4531,385.3281 L390.5469,385.3281 L390.5469,389.9688 L388.0938,389.9688 L388.0938,377.5781 Z "/><text fill="#000000" font-family="sans-serif" font-size="12" font-style="italic" lengthAdjust="spacingAndGlyphs" textLength="68" x="409.25" y="381.1387">«package»</text><text fill="#000000" font-family="sans-serif" font-size="12" lengthAdjust="spacingAndGlyphs" textLength="41" x="422.75" y="395.1074">Library</text><line style="stroke: #A80036; stroke-width: 1.5;" x1="318.5" x2="535.5" y1="402.9375" y2="402.9375"/><text fill="#000000" font-family="sans-serif" font-size="11" lengthAdjust="spacingAndGlyphs" textLength="191" x="323.5" y="417.1479">our Library::Configuration $lib-cfg</text><text fill="#000000" font-family="sans-serif" font-size="11" lengthAdjust="spacingAndGlyphs" textLength="157" x="323.5" y="429.9526">our MongoDB::Client $client</text><line style="stroke: #A80036; stroke-width: 1.5;" x1="318.5" x2="535.5" y1="436.5469" y2="436.5469"/><text fill="#000000" font-family="sans-serif" font-size="11" lengthAdjust="spacingAndGlyphs" textLength="207" x="323.5" y="450.7573">initialize-library( Str :$library-config )</text><!--class LC--><rect fill="#FEFECE" filter="url(#f2e42k4)" height="112.0234" style="stroke: #A80036; stroke-width: 1.5;" width="239" x="307.5" y="167"/><ellipse cx="356.25" cy="183" fill="#ADD1B2" rx="11" ry="11" style="stroke: #A80036; stroke-width: 1.0;"/><path d="M359.2188,188.6406 Q358.6406,188.9375 358,189.0859 Q357.3594,189.2344 356.6563,189.2344 Q354.1563,189.2344 352.8359,187.5859 Q351.5156,185.9375 351.5156,182.8125 Q351.5156,179.6875 352.8359,178.0313 Q354.1563,176.375 356.6563,176.375 Q357.3594,176.375 358.0078,176.5313 Q358.6563,176.6875 359.2188,176.9844 L359.2188,179.7031 Q358.5938,179.125 358,178.8516 Q357.4063,178.5781 356.7813,178.5781 Q355.4375,178.5781 354.75,179.6484 Q354.0625,180.7188 354.0625,182.8125 Q354.0625,184.9063 354.75,185.9766 Q355.4375,187.0469 356.7813,187.0469 Q357.4063,187.0469 358,186.7734 Q358.5938,186.5 359.2188,185.9219 L359.2188,188.6406 Z "/><text fill="#000000" font-family="sans-serif" font-size="12" lengthAdjust="spacingAndGlyphs" textLength="133" x="376.75" y="187.1543">Library::Configuration</text><line style="stroke: #A80036; stroke-width: 1.5;" x1="308.5" x2="545.5" y1="199" y2="199"/><text fill="#000000" font-family="sans-serif" font-size="11" lengthAdjust="spacingAndGlyphs" textLength="143" x="313.5" y="213.2104">has Str $!config-filename</text><text fill="#000000" font-family="sans-serif" font-size="11" lengthAdjust="spacingAndGlyphs" textLength="103" x="313.5" y="226.0151">has Hash $.config</text><line style="stroke: #A80036; stroke-width: 1.5;" x1="308.5" x2="545.5" y1="232.6094" y2="232.6094"/><text fill="#000000" font-family="sans-serif" font-size="11" lengthAdjust="spacingAndGlyphs" textLength="227" x="313.5" y="246.8198">submethod BUILD ( Str :$library-config )</text><text fill="#000000" font-family="sans-serif" font-size="11" lengthAdjust="spacingAndGlyphs" textLength="90" x="313.5" y="259.6245">method save ( )</text><text fill="#000000" font-family="sans-serif" font-size="11" lengthAdjust="spacingAndGlyphs" textLength="136" x="313.5" y="272.4292">method !check-config ( )</text><!--class LD--><rect fill="#FEFECE" filter="url(#f2e42k4)" height="143.5703" style="stroke: #A80036; stroke-width: 1.5;" width="350" x="254" y="543"/><ellipse cx="369.75" cy="561.9688" fill="#FFFF00" rx="11" ry="11" style="stroke: #A80036; stroke-width: 1.0;"/><path d="M370.9531,562.1094 Q371.3125,562.1875 371.5859,562.4609 Q371.8594,562.7344 372.25,563.5156 L374.4844,567.9688 L371.7969,567.9688 L370.2969,564.8438 Q370.2344,564.7031 370.125,564.4688 Q369.4688,563.0781 368.5781,563.0781 L367.7969,563.0781 L367.7969,567.9688 L365.3594,567.9688 L365.3594,555.5781 L368.8906,555.5781 Q371.2813,555.5781 372.3203,556.4219 Q373.3594,557.2656 373.3594,559.1719 Q373.3594,560.4531 372.7422,561.2109 Q372.125,561.9688 370.9531,562.1094 Z M367.7969,557.6406 L367.7969,561.0156 L368.9531,561.0156 Q369.9688,561.0156 370.3984,560.6172 Q370.8281,560.2188 370.8281,559.3125 Q370.8281,558.4219 370.3984,558.0313 Q369.9688,557.6406 368.9531,557.6406 L367.7969,557.6406 Z "/><text fill="#000000" font-family="sans-serif" font-size="12" font-style="italic" lengthAdjust="spacingAndGlyphs" textLength="38" x="426.25" y="559.1387">«role»</text><text fill="#000000" font-family="sans-serif" font-size="12" lengthAdjust="spacingAndGlyphs" textLength="110" x="390.25" y="573.1074">Library::Database</text><line style="stroke: #A80036; stroke-width: 1.5;" x1="255" x2="603" y1="580.9375" y2="580.9375"/><text fill="#000000" font-family="sans-serif" font-size="11" lengthAdjust="spacingAndGlyphs" textLength="207" x="260" y="595.1479">has MongoDB::Database $!database</text><text fill="#000000" font-family="sans-serif" font-size="11" lengthAdjust="spacingAndGlyphs" textLength="300" x="260" y="607.9526">has MongoDB::Collection $!collection handles &lt;find&gt;</text><line style="stroke: #A80036; stroke-width: 1.5;" x1="255" x2="603" y1="614.5469" y2="614.5469"/><text fill="#000000" font-family="sans-serif" font-size="11" lengthAdjust="spacingAndGlyphs" textLength="338" x="260" y="628.7573">method init ( Str:D :$database-key!, Str:D :$collection-key! )</text><text fill="#000000" font-family="sans-serif" font-size="11" lengthAdjust="spacingAndGlyphs" textLength="327" x="260" y="641.562">method insert ( Array $documents --&gt; BSON::Document )</text><text fill="#000000" font-family="sans-serif" font-size="11" lengthAdjust="spacingAndGlyphs" textLength="308" x="260" y="654.3667">method delete ( Array $deletes --&gt; BSON::Document )</text><text fill="#000000" font-family="sans-serif" font-size="11" lengthAdjust="spacingAndGlyphs" textLength="284" x="260" y="667.1714">method count ( List $query --&gt; BSON::Document )</text><text fill="#000000" font-family="sans-serif" font-size="11" lengthAdjust="spacingAndGlyphs" textLength="269" x="260" y="679.9761">method drop-database ( --&gt; BSON::Document )</text><!--class LMD--><rect fill="#FEFECE" filter="url(#f2e42k4)" height="86.4141" style="stroke: #A80036; stroke-width: 1.5;" width="315" x="644.5" y="747"/><ellipse cx="708.75" cy="763" fill="#ADD1B2" rx="11" ry="11" style="stroke: #A80036; stroke-width: 1.0;"/><path d="M711.7188,768.6406 Q711.1406,768.9375 710.5,769.0859 Q709.8594,769.2344 709.1563,769.2344 Q706.6563,769.2344 705.3359,767.5859 Q704.0156,765.9375 704.0156,762.8125 Q704.0156,759.6875 705.3359,758.0313 Q706.6563,756.375 709.1563,756.375 Q709.8594,756.375 710.5078,756.5313 Q711.1563,756.6875 711.7188,756.9844 L711.7188,759.7031 Q711.0938,759.125 710.5,758.8516 Q709.9063,758.5781 709.2813,758.5781 Q707.9375,758.5781 707.25,759.6484 Q706.5625,760.7188 706.5625,762.8125 Q706.5625,764.9063 707.25,765.9766 Q707.9375,767.0469 709.2813,767.0469 Q709.9063,767.0469 710.5,766.7734 Q711.0938,766.5 711.7188,765.9219 L711.7188,768.6406 Z "/><text fill="#000000" font-family="sans-serif" font-size="12" lengthAdjust="spacingAndGlyphs" textLength="178" x="729.25" y="767.1543">Library::Metadata::Database</text><line style="stroke: #A80036; stroke-width: 1.5;" x1="645.5" x2="958.5" y1="779" y2="779"/><text fill="#000000" font-family="sans-serif" font-size="11" lengthAdjust="spacingAndGlyphs" textLength="250" x="650.5" y="793.2104">has Library::MetaData::Object $!meta-object</text><line style="stroke: #A80036; stroke-width: 1.5;" x1="645.5" x2="958.5" y1="799.8047" y2="799.8047"/><text fill="#000000" font-family="sans-serif" font-size="11" lengthAdjust="spacingAndGlyphs" textLength="117" x="650.5" y="814.0151">submethod BUILD ( )</text><text fill="#000000" font-family="sans-serif" font-size="11" lengthAdjust="spacingAndGlyphs" textLength="303" x="650.5" y="826.8198">method update-meta( Str $object, ObjectType $type )</text><!--class Obj--><rect fill="#FEFECE" filter="url(#f2e42k4)" height="143.5703" style="stroke: #A80036; stroke-width: 1.5;" width="415" x="752.5" y="339"/><ellipse cx="877.25" cy="357.9688" fill="#FFFF00" rx="11" ry="11" style="stroke: #A80036; stroke-width: 1.0;"/><path d="M878.4531,358.1094 Q878.8125,358.1875 879.0859,358.4609 Q879.3594,358.7344 879.75,359.5156 L881.9844,363.9688 L879.2969,363.9688 L877.7969,360.8438 Q877.7344,360.7031 877.625,360.4688 Q876.9688,359.0781 876.0781,359.0781 L875.2969,359.0781 L875.2969,363.9688 L872.8594,363.9688 L872.8594,351.5781 L876.3906,351.5781 Q878.7813,351.5781 879.8203,352.4219 Q880.8594,353.2656 880.8594,355.1719 Q880.8594,356.4531 880.2422,357.2109 Q879.625,357.9688 878.4531,358.1094 Z M875.2969,353.6406 L875.2969,357.0156 L876.4531,357.0156 Q877.4688,357.0156 877.8984,356.6172 Q878.3281,356.2188 878.3281,355.3125 Q878.3281,354.4219 877.8984,354.0313 Q877.4688,353.6406 876.4531,353.6406 L875.2969,353.6406 Z "/><text fill="#000000" font-family="sans-serif" font-size="12" font-style="italic" lengthAdjust="spacingAndGlyphs" textLength="38" x="957.25" y="355.1387">«role»</text><text fill="#000000" font-family="sans-serif" font-size="12" lengthAdjust="spacingAndGlyphs" textLength="157" x="897.75" y="369.1074">Library::Metadata::Object</text><line style="stroke: #A80036; stroke-width: 1.5;" x1="753.5" x2="1166.5" y1="376.9375" y2="376.9375"/><text fill="#000000" font-family="sans-serif" font-size="11" lengthAdjust="spacingAndGlyphs" textLength="195" x="758.5" y="391.1479">has BSON::Document $!meta-data</text><text fill="#000000" font-family="sans-serif" font-size="11" lengthAdjust="spacingAndGlyphs" textLength="368" x="758.5" y="403.9526">has $!db-object where .^name ~~ 'Library::Metadata::Database'</text><line style="stroke: #A80036; stroke-width: 1.5;" x1="753.5" x2="1166.5" y1="410.5469" y2="410.5469"/><text fill="#000000" font-family="sans-serif" font-size="11" lengthAdjust="spacingAndGlyphs" textLength="215" x="758.5" y="424.7573">method meta ( --&gt; BSON::Document )</text><text fill="#000000" font-family="sans-serif" font-size="11" lengthAdjust="spacingAndGlyphs" textLength="403" x="758.5" y="437.562">method init-meta ( Str :$object, ObjectType :$type ) { ... }   # Abstract</text><text fill="#000000" font-family="sans-serif" font-size="11" lengthAdjust="spacingAndGlyphs" textLength="237" x="758.5" y="450.3667">method update-meta ( ) { ... } # Abstract</text><text fill="#000000" font-family="sans-serif" font-size="11" lengthAdjust="spacingAndGlyphs" textLength="175" x="758.5" y="463.1714">method !sha1 ( Str $s --&gt; Str )</text><text fill="#000000" font-family="sans-serif" font-size="11" lengthAdjust="spacingAndGlyphs" textLength="248" x="758.5" y="475.9761">method !sha1-content ( Str $object --&gt; Str )</text><!--class OTF--><rect fill="#FEFECE" filter="url(#f2e42k4)" height="73.6094" style="stroke: #A80036; stroke-width: 1.5;" width="326" x="1000" y="578"/><ellipse cx="1065.75" cy="594" fill="#ADD1B2" rx="11" ry="11" style="stroke: #A80036; stroke-width: 1.0;"/><path d="M1068.7188,599.6406 Q1068.1406,599.9375 1067.5,600.0859 Q1066.8594,600.2344 1066.1563,600.2344 Q1063.6563,600.2344 1062.3359,598.5859 Q1061.0156,596.9375 1061.0156,593.8125 Q1061.0156,590.6875 1062.3359,589.0313 Q1063.6563,587.375 1066.1563,587.375 Q1066.8594,587.375 1067.5078,587.5313 Q1068.1563,587.6875 1068.7188,587.9844 L1068.7188,590.7031 Q1068.0938,590.125 1067.5,589.8516 Q1066.9063,589.5781 1066.2813,589.5781 Q1064.9375,589.5781 1064.25,590.6484 Q1063.5625,591.7188 1063.5625,593.8125 Q1063.5625,595.9063 1064.25,596.9766 Q1064.9375,598.0469 1066.2813,598.0469 Q1066.9063,598.0469 1067.5,597.7734 Q1068.0938,597.5 1068.7188,596.9219 L1068.7188,599.6406 Z "/><text fill="#000000" font-family="sans-serif" font-size="12" lengthAdjust="spacingAndGlyphs" textLength="186" x="1086.25" y="598.1543">Library::Metadata::Object::File</text><line style="stroke: #A80036; stroke-width: 1.5;" x1="1001" x2="1325" y1="610" y2="610"/><line style="stroke: #A80036; stroke-width: 1.5;" x1="1001" x2="1325" y1="618" y2="618"/><text fill="#000000" font-family="sans-serif" font-size="11" lengthAdjust="spacingAndGlyphs" textLength="314" x="1006" y="632.2104">submethod init-meta ( Str :$object, ObjectType :$type )</text><text fill="#000000" font-family="sans-serif" font-size="11" lengthAdjust="spacingAndGlyphs" textLength="135" x="1006" y="645.0151">method update-meta ( )</text><!--class OTD--><rect fill="#FEFECE" filter="url(#f2e42k4)" height="73.6094" style="stroke: #A80036; stroke-width: 1.5;" width="326" x="639" y="578"/><ellipse cx="687.25" cy="594" fill="#ADD1B2" rx="11" ry="11" style="stroke: #A80036; stroke-width: 1.0;"/><path d="M690.2188,599.6406 Q689.6406,599.9375 689,600.0859 Q688.3594,600.2344 687.6563,600.2344 Q685.1563,600.2344 683.8359,598.5859 Q682.5156,596.9375 682.5156,593.8125 Q682.5156,590.6875 683.8359,589.0313 Q685.1563,587.375 687.6563,587.375 Q688.3594,587.375 689.0078,587.5313 Q689.6563,587.6875 690.2188,587.9844 L690.2188,590.7031 Q689.5938,590.125 689,589.8516 Q688.4063,589.5781 687.7813,589.5781 Q686.4375,589.5781 685.75,590.6484 Q685.0625,591.7188 685.0625,593.8125 Q685.0625,595.9063 685.75,596.9766 Q686.4375,598.0469 687.7813,598.0469 Q688.4063,598.0469 689,597.7734 Q689.5938,597.5 690.2188,596.9219 L690.2188,599.6406 Z "/><text fill="#000000" font-family="sans-serif" font-size="12" lengthAdjust="spacingAndGlyphs" textLength="221" x="707.75" y="598.1543">Library::Metadata::Object::Directory</text><line style="stroke: #A80036; stroke-width: 1.5;" x1="640" x2="964" y1="610" y2="610"/><line style="stroke: #A80036; stroke-width: 1.5;" x1="640" x2="964" y1="618" y2="618"/><text fill="#000000" font-family="sans-serif" font-size="11" lengthAdjust="spacingAndGlyphs" textLength="314" x="645" y="632.2104">submethod init-meta ( Str :$object, ObjectType :$type )</text><text fill="#000000" font-family="sans-serif" font-size="11" lengthAdjust="spacingAndGlyphs" textLength="135" x="645" y="645.0151">method update-meta ( )</text><path d="M191.102,106.813 C199.775,111.605 208.043,117.292 215,124 C270.094,177.117 244.961,217.127 290,279 C310.256,306.827 336.828,333.783 361.175,355.934 " fill="none" style="stroke: #A80036; stroke-width: 1.0;"/><polygon fill="#A80036" points="371.089,364.806,369.2852,357.8241,362.1466,356.8039,363.9504,363.7857,371.089,364.806" style="stroke: #A80036; stroke-width: 1.0;"/><path d="M427,279.051 C427,301.886 427,328.405 427,351.582 " fill="none" style="stroke: #A80036; stroke-width: 1.0;"/><polygon fill="#A80036" points="427,364.79,431,358.79,427,352.79,423,358.79,427,364.79" style="stroke: #A80036; stroke-width: 1.0;"/><path d="M427.446,457.081 C427.658,478.47 427.918,504.743 428.165,529.631 " fill="none" style="stroke: #A80036; stroke-width: 1.0;"/><polygon fill="#A80036" points="428.296,542.879,432.2365,536.8397,428.1773,530.8796,424.2369,536.9189,428.296,542.879" style="stroke: #A80036; stroke-width: 1.0;"/><path d="M139.655,247.287 C160.167,269.878 191.275,305.553 215,339 C257.998,399.616 254.701,424.084 300,483 C313.051,499.973 328.119,517.046 343.251,533 " fill="none" style="stroke: #A80036; stroke-width: 1.0;"/><polygon fill="#A80036" points="352.664,542.779,351.3847,535.6823,344.3418,534.1337,345.6211,541.2304,352.664,542.779" style="stroke: #A80036; stroke-width: 1.0;"/><path d="M153.676,435.172 C191.444,459.703 253.142,499.777 308.569,535.778 " fill="none" style="stroke: #A80036; stroke-width: 1.0;"/><polygon fill="#A80036" points="319.561,542.918,316.7084,536.2951,309.4978,536.3811,312.3504,543.0039,319.561,542.918" style="stroke: #A80036; stroke-width: 1.0;"/><path d="M600.67,695.622 C638.835,713.323 677.833,731.411 711.218,746.895 " fill="none" style="stroke: #A80036; stroke-width: 1.0;"/><polygon fill="none" points="597.526,701.88,582.328,687.115,603.417,689.18,597.526,701.88" style="stroke: #A80036; stroke-width: 1.0;"/><path d="M1087.76,652.056 C1033.83,677.903 960.615,712.988 901.799,741.174 " fill="none" style="stroke: #A80036; stroke-width: 1.0;"/><polygon fill="#A80036" points="889.859,746.896,896.9985,747.9099,900.6803,741.7095,893.5408,740.6957,889.859,746.896" style="stroke: #A80036; stroke-width: 1.0;"/><path d="M802,652.266 C802,675.915 802,707.228 802,733.922 " fill="none" style="stroke: #A80036; stroke-width: 1.0;"/><polygon fill="#A80036" points="802,746.996,806,740.996,802,734.996,798,740.996,802,746.996" style="stroke: #A80036; stroke-width: 1.0;"/><path d="M1045.76,497.338 C1074.13,525.565 1104.18,555.465 1126.75,577.928 " fill="none" style="stroke: #A80036; stroke-width: 1.0;"/><polygon fill="none" points="1040.81,502.287,1031.57,483.218,1050.68,492.363,1040.81,502.287" style="stroke: #A80036; stroke-width: 1.0;"/><path d="M891.737,499.273 C870.107,526.926 847.383,555.978 830.214,577.928 " fill="none" style="stroke: #A80036; stroke-width: 1.0;"/><polygon fill="none" points="886.459,494.658,904.295,483.218,897.487,503.284,886.459,494.658" style="stroke: #A80036; stroke-width: 1.0;"/></g></svg>